%TF.GenerationSoftware,KiCad,Pcbnew,9.0.1*%
%TF.CreationDate,2026-08-29T11:04:34+03:00*%
%TF.ProjectId,usb-c-uart,7573622d-632d-4756-9172-742e6b696361,rev?*%
%TF.SameCoordinates,Original*%
%TF.FileFunction,Paste,Top*%
%TF.FilePolarity,Positive*%
%FSLAX46Y46*%
G04 Gerber Fmt 4.6, Leading zero omitted, Abs format (unit mm)*
G04 Created by KiCad (PCBNEW 9.0.1) date 2026-08-29 11:04:34*
%MOMM*%
%LPD*%
G01*
G04 APERTURE LIST*
G04 Aperture macros list*
%AMRoundRect*
0 Rectangle with rounded corners*
0 $1 Rounding radius*
0 $2 $3 $4 $5 $6 $7 $8 $9 X,Y pos of 4 corners*
0 Add a 4 corners polygon primitive as box body*
4,1,4,$2,$3,$4,$5,$6,$7,$8,$9,$2,$3,0*
0 Add four circle primitives for the rounded corners*
1,1,$1+$1,$2,$3*
1,1,$1+$1,$4,$5*
1,1,$1+$1,$6,$7*
1,1,$1+$1,$8,$9*
0 Add four rect primitives between the rounded corners*
20,1,$1+$1,$2,$3,$4,$5,0*
20,1,$1+$1,$4,$5,$6,$7,0*
20,1,$1+$1,$6,$7,$8,$9,0*
20,1,$1+$1,$8,$9,$2,$3,0*%
G04 Aperture macros list end*
%ADD10C,0.000000*%
%ADD11RoundRect,0.250001X0.462499X0.624999X-0.462499X0.624999X-0.462499X-0.624999X0.462499X-0.624999X0*%
%ADD12R,0.127000X0.127000*%
%ADD13R,1.143000X0.304800*%
%ADD14R,0.965200X0.254000*%
%ADD15R,0.254000X0.965200*%
%ADD16R,3.352800X3.352800*%
%ADD17RoundRect,0.250000X0.475000X-0.337500X0.475000X0.337500X-0.475000X0.337500X-0.475000X-0.337500X0*%
%ADD18RoundRect,0.250000X0.337500X0.475000X-0.337500X0.475000X-0.337500X-0.475000X0.337500X-0.475000X0*%
%ADD19RoundRect,0.250000X-0.475000X0.337500X-0.475000X-0.337500X0.475000X-0.337500X0.475000X0.337500X0*%
%ADD20RoundRect,0.250000X-0.337500X-0.475000X0.337500X-0.475000X0.337500X0.475000X-0.337500X0.475000X0*%
%ADD21RoundRect,0.150000X-0.512500X-0.150000X0.512500X-0.150000X0.512500X0.150000X-0.512500X0.150000X0*%
G04 APERTURE END LIST*
D10*
%TO.C,J2*%
G36*
X117741800Y-108096907D02*
G01*
X116598800Y-108096907D01*
X116598800Y-107487307D01*
X117741800Y-107487307D01*
X117741800Y-108096907D01*
G37*
G36*
X117741800Y-108901833D02*
G01*
X116598800Y-108901833D01*
X116598800Y-108292233D01*
X117741800Y-108292233D01*
X117741800Y-108901833D01*
G37*
G36*
X117741800Y-113707767D02*
G01*
X116598800Y-113707767D01*
X116598800Y-113098167D01*
X117741800Y-113098167D01*
X117741800Y-113707767D01*
G37*
G36*
X117741800Y-114512693D02*
G01*
X116598800Y-114512693D01*
X116598800Y-113903093D01*
X117741800Y-113903093D01*
X117741800Y-114512693D01*
G37*
%TO.C,U1*%
G36*
X130851100Y-110811100D02*
G01*
X129374700Y-110811100D01*
X129374700Y-109334700D01*
X130851100Y-109334700D01*
X130851100Y-110811100D01*
G37*
G36*
X130851100Y-112487500D02*
G01*
X129374700Y-112487500D01*
X129374700Y-111011100D01*
X130851100Y-111011100D01*
X130851100Y-112487500D01*
G37*
G36*
X132527500Y-110811100D02*
G01*
X131051100Y-110811100D01*
X131051100Y-109334700D01*
X132527500Y-109334700D01*
X132527500Y-110811100D01*
G37*
G36*
X132527500Y-112487500D02*
G01*
X131051100Y-112487500D01*
X131051100Y-111011100D01*
X132527500Y-111011100D01*
X132527500Y-112487500D01*
G37*
%TD*%
D11*
%TO.C,D1*%
X143005000Y-113630000D03*
X140030000Y-113630000D03*
%TD*%
D12*
%TO.C,J2*%
X117170300Y-107639707D03*
X117170300Y-108444633D03*
D13*
X117170300Y-109749685D03*
X117170300Y-110749937D03*
X117170300Y-111250063D03*
X117170300Y-109249559D03*
D12*
X117170300Y-113555367D03*
X117170300Y-114360293D03*
X117170300Y-114055493D03*
X117170300Y-113250567D03*
D13*
X117170300Y-112750441D03*
X117170300Y-111750189D03*
X117170300Y-110249811D03*
X117170300Y-112250315D03*
D12*
X117170300Y-108749433D03*
X117170300Y-107944507D03*
%TD*%
D11*
%TO.C,D2*%
X143087500Y-105710000D03*
X140112500Y-105710000D03*
%TD*%
D14*
%TO.C,U1*%
X128627000Y-109411100D03*
X128627000Y-109911099D03*
X128627000Y-110411101D03*
X128627000Y-110911100D03*
X128627000Y-111411099D03*
X128627000Y-111911101D03*
X128627000Y-112411100D03*
D15*
X129451100Y-113235200D03*
X129951099Y-113235200D03*
X130451101Y-113235200D03*
X130951100Y-113235200D03*
X131451099Y-113235200D03*
X131951101Y-113235200D03*
X132451100Y-113235200D03*
D14*
X133275200Y-112411100D03*
X133275200Y-111911101D03*
X133275200Y-111411099D03*
X133275200Y-110911100D03*
X133275200Y-110411101D03*
X133275200Y-109911099D03*
X133275200Y-109411100D03*
D15*
X132451100Y-108587000D03*
X131951101Y-108587000D03*
X131451099Y-108587000D03*
X130951100Y-108587000D03*
X130451101Y-108587000D03*
X129951099Y-108587000D03*
X129451100Y-108587000D03*
D16*
X130951100Y-110911100D03*
%TD*%
D17*
%TO.C,R5*%
X136810000Y-111817500D03*
X136810000Y-109742500D03*
%TD*%
D18*
%TO.C,C3*%
X126825200Y-112771100D03*
X124750200Y-112771100D03*
%TD*%
D19*
%TO.C,C2*%
X119500000Y-104962500D03*
X119500000Y-107037500D03*
%TD*%
D20*
%TO.C,R1*%
X119472500Y-113810000D03*
X121547500Y-113810000D03*
%TD*%
D11*
%TO.C,D3*%
X143087500Y-109650000D03*
X140112500Y-109650000D03*
%TD*%
D19*
%TO.C,C1*%
X122000000Y-104962500D03*
X122000000Y-107037500D03*
%TD*%
D20*
%TO.C,R4*%
X135542500Y-105600000D03*
X137617500Y-105600000D03*
%TD*%
D17*
%TO.C,R6*%
X136830000Y-116427500D03*
X136830000Y-114352500D03*
%TD*%
D18*
%TO.C,R3*%
X131407500Y-116410000D03*
X129332500Y-116410000D03*
%TD*%
D20*
%TO.C,R2*%
X119530000Y-116550000D03*
X121605000Y-116550000D03*
%TD*%
D18*
%TO.C,C4*%
X126785200Y-115201100D03*
X124710200Y-115201100D03*
%TD*%
D21*
%TO.C,U2*%
X120592500Y-109350000D03*
X120592500Y-110300000D03*
X120592500Y-111250000D03*
X122867500Y-111250000D03*
X122867500Y-110300000D03*
X122867500Y-109350000D03*
%TD*%
M02*
