%TF.GenerationSoftware,KiCad,Pcbnew,9.0.1*%
%TF.CreationDate,2026-08-29T11:04:34+03:00*%
%TF.ProjectId,usb-c-uart,7573622d-632d-4756-9172-742e6b696361,rev?*%
%TF.SameCoordinates,Original*%
%TF.FileFunction,Copper,L1,Top*%
%TF.FilePolarity,Positive*%
%FSLAX46Y46*%
G04 Gerber Fmt 4.6, Leading zero omitted, Abs format (unit mm)*
G04 Created by KiCad (PCBNEW 9.0.1) date 2026-08-29 11:04:34*
%MOMM*%
%LPD*%
G01*
G04 APERTURE LIST*
G04 Aperture macros list*
%AMRoundRect*
0 Rectangle with rounded corners*
0 $1 Rounding radius*
0 $2 $3 $4 $5 $6 $7 $8 $9 X,Y pos of 4 corners*
0 Add a 4 corners polygon primitive as box body*
4,1,4,$2,$3,$4,$5,$6,$7,$8,$9,$2,$3,0*
0 Add four circle primitives for the rounded corners*
1,1,$1+$1,$2,$3*
1,1,$1+$1,$4,$5*
1,1,$1+$1,$6,$7*
1,1,$1+$1,$8,$9*
0 Add four rect primitives between the rounded corners*
20,1,$1+$1,$2,$3,$4,$5,0*
20,1,$1+$1,$4,$5,$6,$7,0*
20,1,$1+$1,$6,$7,$8,$9,0*
20,1,$1+$1,$8,$9,$2,$3,0*%
G04 Aperture macros list end*
%TA.AperFunction,EtchedComponent*%
%ADD10C,0.000000*%
%TD*%
%TA.AperFunction,SMDPad,CuDef*%
%ADD11RoundRect,0.250001X0.462499X0.624999X-0.462499X0.624999X-0.462499X-0.624999X0.462499X-0.624999X0*%
%TD*%
%TA.AperFunction,WasherPad*%
%ADD12O,1.905000X1.117600*%
%TD*%
%TA.AperFunction,WasherPad*%
%ADD13O,2.209800X1.117600*%
%TD*%
%TA.AperFunction,SMDPad,CuDef*%
%ADD14R,0.127000X0.127000*%
%TD*%
%TA.AperFunction,SMDPad,CuDef*%
%ADD15R,1.143000X0.304800*%
%TD*%
%TA.AperFunction,SMDPad,CuDef*%
%ADD16R,0.965200X0.254000*%
%TD*%
%TA.AperFunction,SMDPad,CuDef*%
%ADD17R,0.254000X0.965200*%
%TD*%
%TA.AperFunction,SMDPad,CuDef*%
%ADD18R,3.352800X3.352800*%
%TD*%
%TA.AperFunction,SMDPad,CuDef*%
%ADD19RoundRect,0.250000X0.475000X-0.337500X0.475000X0.337500X-0.475000X0.337500X-0.475000X-0.337500X0*%
%TD*%
%TA.AperFunction,SMDPad,CuDef*%
%ADD20RoundRect,0.250000X0.337500X0.475000X-0.337500X0.475000X-0.337500X-0.475000X0.337500X-0.475000X0*%
%TD*%
%TA.AperFunction,SMDPad,CuDef*%
%ADD21RoundRect,0.250000X-0.475000X0.337500X-0.475000X-0.337500X0.475000X-0.337500X0.475000X0.337500X0*%
%TD*%
%TA.AperFunction,SMDPad,CuDef*%
%ADD22RoundRect,0.250000X-0.337500X-0.475000X0.337500X-0.475000X0.337500X0.475000X-0.337500X0.475000X0*%
%TD*%
%TA.AperFunction,ComponentPad*%
%ADD23R,1.700000X1.700000*%
%TD*%
%TA.AperFunction,ComponentPad*%
%ADD24C,1.700000*%
%TD*%
%TA.AperFunction,SMDPad,CuDef*%
%ADD25RoundRect,0.150000X-0.512500X-0.150000X0.512500X-0.150000X0.512500X0.150000X-0.512500X0.150000X0*%
%TD*%
%TA.AperFunction,ViaPad*%
%ADD26C,0.600000*%
%TD*%
%TA.AperFunction,Conductor*%
%ADD27C,0.500000*%
%TD*%
%TA.AperFunction,Conductor*%
%ADD28C,0.200000*%
%TD*%
G04 APERTURE END LIST*
D10*
%TA.AperFunction,EtchedComponent*%
%TO.C,J2*%
G36*
X117741800Y-108096907D02*
G01*
X116598800Y-108096907D01*
X116598800Y-107487307D01*
X117741800Y-107487307D01*
X117741800Y-108096907D01*
G37*
%TD.AperFunction*%
%TA.AperFunction,EtchedComponent*%
G36*
X117741800Y-108901833D02*
G01*
X116598800Y-108901833D01*
X116598800Y-108292233D01*
X117741800Y-108292233D01*
X117741800Y-108901833D01*
G37*
%TD.AperFunction*%
%TA.AperFunction,EtchedComponent*%
G36*
X117741800Y-113707767D02*
G01*
X116598800Y-113707767D01*
X116598800Y-113098167D01*
X117741800Y-113098167D01*
X117741800Y-113707767D01*
G37*
%TD.AperFunction*%
%TA.AperFunction,EtchedComponent*%
G36*
X117741800Y-114512693D02*
G01*
X116598800Y-114512693D01*
X116598800Y-113903093D01*
X117741800Y-113903093D01*
X117741800Y-114512693D01*
G37*
%TD.AperFunction*%
%TD*%
D11*
%TO.P,D1,1,K*%
%TO.N,GNDREF*%
X143005000Y-113630000D03*
%TO.P,D1,2,A*%
%TO.N,Net-(D1-A)*%
X140030000Y-113630000D03*
%TD*%
D12*
%TO.P,J2,*%
%TO.N,*%
X112429300Y-106679968D03*
D13*
X116579300Y-106679998D03*
X116579300Y-115320002D03*
D12*
X112429300Y-115320032D03*
D14*
%TO.P,J2,A1,GND*%
%TO.N,GNDREF*%
X117170300Y-107639707D03*
%TO.P,J2,A4,VBUS*%
%TO.N,VBUS*%
X117170300Y-108444633D03*
D15*
%TO.P,J2,A5,CC1*%
%TO.N,Net-(J2-CC1)*%
X117170300Y-109749685D03*
%TO.P,J2,A6,DP1*%
%TO.N,Net-(J2-DP1)*%
X117170300Y-110749937D03*
%TO.P,J2,A7,DN1*%
%TO.N,Net-(J2-DN1)*%
X117170300Y-111250063D03*
%TO.P,J2,A8,SBU1*%
%TO.N,unconnected-(J2-SBU1-PadA8)*%
X117170300Y-109249559D03*
D14*
%TO.P,J2,A9,VBUS*%
%TO.N,VBUS*%
X117170300Y-113555367D03*
%TO.P,J2,A12,GND*%
%TO.N,GNDREF*%
X117170300Y-114360293D03*
%TO.P,J2,B1,GND*%
X117170300Y-114055493D03*
%TO.P,J2,B4,VBUS*%
%TO.N,VBUS*%
X117170300Y-113250567D03*
D15*
%TO.P,J2,B5,CC2*%
%TO.N,Net-(J2-CC2)*%
X117170300Y-112750441D03*
%TO.P,J2,B6,DP2*%
%TO.N,Net-(J2-DP1)*%
X117170300Y-111750189D03*
%TO.P,J2,B7,DN2*%
%TO.N,Net-(J2-DN1)*%
X117170300Y-110249811D03*
%TO.P,J2,B8,SBU2*%
%TO.N,unconnected-(J2-SBU2-PadB8)*%
X117170300Y-112250315D03*
D14*
%TO.P,J2,B9,VBUS*%
%TO.N,VBUS*%
X117170300Y-108749433D03*
%TO.P,J2,B12,GND*%
%TO.N,GNDREF*%
X117170300Y-107944507D03*
%TD*%
D11*
%TO.P,D2,1,K*%
%TO.N,Net-(D2-K)*%
X143087500Y-105710000D03*
%TO.P,D2,2,A*%
%TO.N,Net-(D2-A)*%
X140112500Y-105710000D03*
%TD*%
D16*
%TO.P,U1,1,DCD*%
%TO.N,unconnected-(U1-DCD-Pad1)*%
X128627000Y-109411100D03*
%TO.P,U1,2,RI*%
%TO.N,unconnected-(U1-RI-Pad2)*%
X128627000Y-109911099D03*
%TO.P,U1,3,GND*%
%TO.N,GNDREF*%
X128627000Y-110411101D03*
%TO.P,U1,4,D+*%
%TO.N,Net-(U1-D+)*%
X128627000Y-110911100D03*
%TO.P,U1,5,D-*%
%TO.N,Net-(U1-D-)*%
X128627000Y-111411099D03*
%TO.P,U1,6,VDD*%
%TO.N,VDD*%
X128627000Y-111911101D03*
%TO.P,U1,7,REGIN*%
%TO.N,VBUS*%
X128627000Y-112411100D03*
D17*
%TO.P,U1,8,VBUS*%
X129451100Y-113235200D03*
%TO.P,U1,9,\u002ARST*%
%TO.N,Net-(U1-\u002ARST)*%
X129951099Y-113235200D03*
%TO.P,U1,10,NC*%
%TO.N,unconnected-(U1-NC-Pad10)*%
X130451101Y-113235200D03*
%TO.P,U1,11,\u002ASUSPEND*%
%TO.N,unconnected-(U1-\u002ASUSPEND-Pad11)*%
X130951100Y-113235200D03*
%TO.P,U1,12,SUSPEND*%
%TO.N,unconnected-(U1-SUSPEND-Pad12)*%
X131451099Y-113235200D03*
%TO.P,U1,13,NC*%
%TO.N,unconnected-(U1-NC-Pad13)*%
X131951101Y-113235200D03*
%TO.P,U1,14,NC*%
%TO.N,unconnected-(U1-NC-Pad14)*%
X132451100Y-113235200D03*
D16*
%TO.P,U1,15,NC*%
%TO.N,unconnected-(U1-NC-Pad15)*%
X133275200Y-112411100D03*
%TO.P,U1,16,NC*%
%TO.N,unconnected-(U1-NC-Pad16)*%
X133275200Y-111911101D03*
%TO.P,U1,17,NC*%
%TO.N,unconnected-(U1-NC-Pad17)*%
X133275200Y-111411099D03*
%TO.P,U1,18,NC/VPP*%
%TO.N,unconnected-(U1-NC{slash}VPP-Pad18)*%
X133275200Y-110911100D03*
%TO.P,U1,19,NC*%
%TO.N,unconnected-(U1-NC-Pad19)*%
X133275200Y-110411101D03*
%TO.P,U1,20,NC*%
%TO.N,unconnected-(U1-NC-Pad20)*%
X133275200Y-109911099D03*
%TO.P,U1,21,NC*%
%TO.N,unconnected-(U1-NC-Pad21)*%
X133275200Y-109411100D03*
D17*
%TO.P,U1,22,NC*%
%TO.N,unconnected-(U1-NC-Pad22)*%
X132451100Y-108587000D03*
%TO.P,U1,23,CTS*%
%TO.N,unconnected-(U1-CTS-Pad23)*%
X131951101Y-108587000D03*
%TO.P,U1,24,RTS*%
%TO.N,unconnected-(U1-RTS-Pad24)*%
X131451099Y-108587000D03*
%TO.P,U1,25,RXD*%
%TO.N,Net-(D3-K)*%
X130951100Y-108587000D03*
%TO.P,U1,26,TXD*%
%TO.N,Net-(D2-K)*%
X130451101Y-108587000D03*
%TO.P,U1,27,DSR*%
%TO.N,unconnected-(U1-DSR-Pad27)*%
X129951099Y-108587000D03*
%TO.P,U1,28,DTR*%
%TO.N,unconnected-(U1-DTR-Pad28)*%
X129451100Y-108587000D03*
D18*
%TO.P,U1,29,EPAD*%
%TO.N,GNDREF*%
X130951100Y-110911100D03*
%TD*%
D19*
%TO.P,R5,1*%
%TO.N,VDD*%
X136810000Y-111817500D03*
%TO.P,R5,2*%
%TO.N,Net-(D3-A)*%
X136810000Y-109742500D03*
%TD*%
D20*
%TO.P,C3,1*%
%TO.N,VDD*%
X126825200Y-112771100D03*
%TO.P,C3,2*%
%TO.N,GNDREF*%
X124750200Y-112771100D03*
%TD*%
D21*
%TO.P,C2,1*%
%TO.N,GNDREF*%
X119500000Y-104962500D03*
%TO.P,C2,2*%
%TO.N,VBUS*%
X119500000Y-107037500D03*
%TD*%
D22*
%TO.P,R1,1*%
%TO.N,Net-(J2-CC2)*%
X119472500Y-113810000D03*
%TO.P,R1,2*%
%TO.N,GNDREF*%
X121547500Y-113810000D03*
%TD*%
D11*
%TO.P,D3,1,K*%
%TO.N,Net-(D3-K)*%
X143087500Y-109650000D03*
%TO.P,D3,2,A*%
%TO.N,Net-(D3-A)*%
X140112500Y-109650000D03*
%TD*%
D21*
%TO.P,C1,1*%
%TO.N,GNDREF*%
X122000000Y-104962500D03*
%TO.P,C1,2*%
%TO.N,VBUS*%
X122000000Y-107037500D03*
%TD*%
D22*
%TO.P,R4,1*%
%TO.N,VDD*%
X135542500Y-105600000D03*
%TO.P,R4,2*%
%TO.N,Net-(D2-A)*%
X137617500Y-105600000D03*
%TD*%
D23*
%TO.P,J1,1,Pin_1*%
%TO.N,Net-(D2-K)*%
X150470000Y-105900000D03*
D24*
%TO.P,J1,2,Pin_2*%
%TO.N,Net-(D3-K)*%
X150470000Y-108440000D03*
%TO.P,J1,3,Pin_3*%
%TO.N,VDD*%
X150470000Y-110980000D03*
%TO.P,J1,4,Pin_4*%
%TO.N,VBUS*%
X150470000Y-113520000D03*
%TO.P,J1,5,Pin_5*%
%TO.N,GNDREF*%
X150470000Y-116060000D03*
%TD*%
D19*
%TO.P,R6,1*%
%TO.N,VBUS*%
X136830000Y-116427500D03*
%TO.P,R6,2*%
%TO.N,Net-(D1-A)*%
X136830000Y-114352500D03*
%TD*%
D20*
%TO.P,R3,1*%
%TO.N,VDD*%
X131407500Y-116410000D03*
%TO.P,R3,2*%
%TO.N,Net-(U1-\u002ARST)*%
X129332500Y-116410000D03*
%TD*%
D22*
%TO.P,R2,1*%
%TO.N,Net-(J2-CC1)*%
X119530000Y-116550000D03*
%TO.P,R2,2*%
%TO.N,GNDREF*%
X121605000Y-116550000D03*
%TD*%
D20*
%TO.P,C4,1*%
%TO.N,VDD*%
X126785200Y-115201100D03*
%TO.P,C4,2*%
%TO.N,GNDREF*%
X124710200Y-115201100D03*
%TD*%
D25*
%TO.P,U2,1,I/O1*%
%TO.N,Net-(J2-DP1)*%
X120592500Y-109350000D03*
%TO.P,U2,2,GND*%
%TO.N,GNDREF*%
X120592500Y-110300000D03*
%TO.P,U2,3,I/O2*%
%TO.N,Net-(J2-DN1)*%
X120592500Y-111250000D03*
%TO.P,U2,4,I/O2*%
%TO.N,Net-(U1-D-)*%
X122867500Y-111250000D03*
%TO.P,U2,5,VBUS*%
%TO.N,VBUS*%
X122867500Y-110300000D03*
%TO.P,U2,6,I/O1*%
%TO.N,Net-(U1-D+)*%
X122867500Y-109350000D03*
%TD*%
D26*
%TO.N,VBUS*%
X145000000Y-115030000D03*
X128300000Y-114210000D03*
X134440000Y-117200000D03*
X125740000Y-117200000D03*
X124035735Y-110704265D03*
X118250000Y-113470000D03*
X125640000Y-109470000D03*
X143250000Y-116370000D03*
%TO.N,GNDREF*%
X145701251Y-105622692D03*
X127945080Y-105200763D03*
X123520000Y-104980000D03*
X125690000Y-106710000D03*
X113500000Y-116980000D03*
X115950000Y-107810000D03*
X116150000Y-114200000D03*
X123280000Y-115200000D03*
X113780000Y-104810000D03*
X127380000Y-110400000D03*
X123300000Y-112860000D03*
X149510000Y-117270000D03*
X134840000Y-115540000D03*
X127520000Y-106960000D03*
X144460000Y-113720000D03*
X122860000Y-113850000D03*
X117980000Y-104960000D03*
X134977227Y-108998122D03*
X122930000Y-116640000D03*
X119090000Y-110240000D03*
%TO.N,VDD*%
X126660000Y-109510000D03*
X126730000Y-116610000D03*
%TO.N,Net-(U1-\u002ARST)*%
X130320958Y-115879439D03*
X130240000Y-114601100D03*
%TD*%
D27*
%TO.N,VBUS*%
X148960000Y-115030000D02*
X150470000Y-113520000D01*
X128825000Y-113115000D02*
X128825000Y-113685000D01*
X128825000Y-113685000D02*
X128300000Y-114210000D01*
X134440000Y-117200000D02*
X136057500Y-117200000D01*
D28*
X123631470Y-110300000D02*
X124035735Y-110704265D01*
D27*
X119500000Y-107037500D02*
X119500000Y-107370000D01*
X136057500Y-117200000D02*
X136830000Y-116427500D01*
X145000000Y-115030000D02*
X148960000Y-115030000D01*
D28*
X117170300Y-108444633D02*
X117170300Y-108640000D01*
X122867500Y-110300000D02*
X123631470Y-110300000D01*
X129430000Y-113660000D02*
X129210000Y-113660000D01*
D27*
X119500000Y-107370000D02*
X118230000Y-108640000D01*
X118230000Y-108640000D02*
X117170300Y-108640000D01*
X118250000Y-113470000D02*
X117390000Y-113470000D01*
D28*
X128210000Y-112660000D02*
X128210000Y-112640000D01*
X128210000Y-112640000D02*
X128387899Y-112462101D01*
D27*
X128825000Y-113115000D02*
X128360000Y-112650000D01*
X119500000Y-107037500D02*
X122000000Y-107037500D01*
X123207500Y-107037500D02*
X125640000Y-109470000D01*
D28*
X129451100Y-113638900D02*
X129430000Y-113660000D01*
X128387899Y-112462101D02*
X128627000Y-112462101D01*
D27*
X136830000Y-116427500D02*
X143192500Y-116427500D01*
X117390000Y-113470000D02*
X117320000Y-113400000D01*
D28*
X117170300Y-113250567D02*
X117170300Y-113555367D01*
D27*
X129210000Y-113500000D02*
X128825000Y-113115000D01*
D28*
X117170300Y-108640000D02*
X117170300Y-108749433D01*
D27*
X143192500Y-116427500D02*
X143250000Y-116370000D01*
X122000000Y-107037500D02*
X123207500Y-107037500D01*
D28*
X129451100Y-113235200D02*
X129451100Y-113638900D01*
D27*
X128360000Y-112650000D02*
X128350000Y-112650000D01*
D28*
%TO.N,GNDREF*%
X124709100Y-115200000D02*
X124710200Y-115201100D01*
X113040000Y-106650000D02*
X115820000Y-106650000D01*
X113780000Y-104810000D02*
X113780000Y-105510000D01*
X121547500Y-113810000D02*
X121547500Y-116492500D01*
X112300000Y-106710000D02*
X112300000Y-115250000D01*
X122860000Y-113850000D02*
X122820000Y-113810000D01*
X123280000Y-115200000D02*
X124709100Y-115200000D01*
X120532500Y-110240000D02*
X120592500Y-110300000D01*
X144800000Y-116350000D02*
X150180000Y-116350000D01*
X117170300Y-106760300D02*
X117060000Y-106650000D01*
X121605000Y-116550000D02*
X123090000Y-116550000D01*
X122017500Y-104980000D02*
X122000000Y-104962500D01*
X112260000Y-115290000D02*
X113500000Y-116530000D01*
X143005000Y-113630000D02*
X143005000Y-114555000D01*
X115910000Y-107770000D02*
X115950000Y-107810000D01*
X149510000Y-117020000D02*
X150470000Y-116060000D01*
X127520000Y-105625843D02*
X127945080Y-105200763D01*
X125690000Y-106710000D02*
X127270000Y-106710000D01*
X122820000Y-113810000D02*
X121547500Y-113810000D01*
X124750200Y-112771100D02*
X124750200Y-115161100D01*
X113500000Y-116530000D02*
X113500000Y-116980000D01*
X123300000Y-112860000D02*
X124661300Y-112860000D01*
X143005000Y-114555000D02*
X144800000Y-116350000D01*
X144460000Y-113720000D02*
X143095000Y-113720000D01*
X113000000Y-106290000D02*
X112720000Y-106290000D01*
X123090000Y-116550000D02*
X123110000Y-116530000D01*
X130951100Y-110911100D02*
X130451101Y-110411101D01*
X115910000Y-106740000D02*
X115910000Y-107770000D01*
X127270000Y-106710000D02*
X127520000Y-106960000D01*
X127520000Y-106960000D02*
X127520000Y-105625843D01*
X116340000Y-115470000D02*
X116150000Y-115280000D01*
X112720000Y-106290000D02*
X112300000Y-106710000D01*
X119497500Y-104960000D02*
X119500000Y-104962500D01*
X121547500Y-116492500D02*
X121605000Y-116550000D01*
X117162407Y-114200000D02*
X117170300Y-114207893D01*
X116150000Y-114200000D02*
X117162407Y-114200000D01*
X123960000Y-104980000D02*
X125690000Y-106710000D01*
X112300000Y-115250000D02*
X112260000Y-115290000D01*
X119090000Y-110240000D02*
X120532500Y-110240000D01*
X128615899Y-110400000D02*
X128627000Y-110411101D01*
X127380000Y-110400000D02*
X128615899Y-110400000D01*
X124661300Y-112860000D02*
X124750200Y-112771100D01*
X117980000Y-104960000D02*
X119497500Y-104960000D01*
X124750200Y-115161100D02*
X124710200Y-115201100D01*
X117170300Y-107639707D02*
X117170300Y-107944507D01*
X113020000Y-106650000D02*
X113160000Y-106650000D01*
X150180000Y-116350000D02*
X150470000Y-116060000D01*
X143095000Y-113720000D02*
X143005000Y-113630000D01*
X123520000Y-104980000D02*
X122017500Y-104980000D01*
X119500000Y-104962500D02*
X122000000Y-104962500D01*
X112860000Y-106810000D02*
X113020000Y-106650000D01*
X112410000Y-115140000D02*
X112410000Y-107260000D01*
X115820000Y-106650000D02*
X115910000Y-106740000D01*
X130451101Y-110411101D02*
X128627000Y-110411101D01*
X112410000Y-107260000D02*
X112860000Y-106810000D01*
X117170300Y-114055493D02*
X117170300Y-114360293D01*
X117170300Y-107792107D02*
X117170300Y-106760300D01*
X116150000Y-115280000D02*
X116150000Y-114200000D01*
X149510000Y-117270000D02*
X149510000Y-117020000D01*
X123520000Y-104980000D02*
X123960000Y-104980000D01*
X113780000Y-105510000D02*
X113000000Y-106290000D01*
D27*
%TO.N,VDD*%
X126660000Y-109510000D02*
X130570000Y-105600000D01*
X126785200Y-115201100D02*
X131390000Y-115201100D01*
X149632500Y-111817500D02*
X150470000Y-110980000D01*
X136810000Y-111817500D02*
X149632500Y-111817500D01*
X135743750Y-112073750D02*
X131407500Y-116410000D01*
X126825200Y-112771100D02*
X127685199Y-111911101D01*
X130570000Y-105600000D02*
X135542500Y-105600000D01*
X126825200Y-112771100D02*
X126825200Y-115161100D01*
D28*
X131407500Y-115218600D02*
X131390000Y-115201100D01*
D27*
X136000000Y-111817500D02*
X136810000Y-111817500D01*
X126730000Y-116610000D02*
X126730000Y-115256300D01*
X127685199Y-111911101D02*
X128627000Y-111911101D01*
D28*
X126730000Y-115256300D02*
X126785200Y-115201100D01*
X126825200Y-112771100D02*
X126935201Y-112881101D01*
D27*
X135743750Y-112073750D02*
X136000000Y-111817500D01*
D28*
X126825200Y-115161100D02*
X126785200Y-115201100D01*
D27*
X131407500Y-116410000D02*
X131407500Y-115218600D01*
D28*
%TO.N,Net-(D1-A)*%
X136830000Y-114352500D02*
X139307500Y-114352500D01*
X139307500Y-114352500D02*
X140030000Y-113630000D01*
%TO.N,Net-(D2-K)*%
X130451101Y-108587000D02*
X130451101Y-107808298D01*
X143087500Y-107277500D02*
X143140000Y-107330000D01*
X143087500Y-105710000D02*
X143087500Y-107277500D01*
X149430000Y-107330000D02*
X150470000Y-106290000D01*
X130929399Y-107330000D02*
X143140000Y-107330000D01*
X130451101Y-107808298D02*
X130929399Y-107330000D01*
X143140000Y-107330000D02*
X149430000Y-107330000D01*
X150470000Y-106290000D02*
X150470000Y-105900000D01*
%TO.N,Net-(D2-A)*%
X137727500Y-105710000D02*
X137617500Y-105600000D01*
X140112500Y-105710000D02*
X137727500Y-105710000D01*
D27*
%TO.N,Net-(D3-A)*%
X136810000Y-109742500D02*
X139997500Y-109742500D01*
D28*
X139997500Y-109742500D02*
X140090000Y-109650000D01*
%TO.N,Net-(D3-K)*%
X141430000Y-107803400D02*
X143116600Y-107803400D01*
X143116600Y-107803400D02*
X149093400Y-107803400D01*
X149730000Y-108440000D02*
X150470000Y-108440000D01*
X130951100Y-107875399D02*
X131023099Y-107803400D01*
X149093400Y-107803400D02*
X149730000Y-108440000D01*
X141430000Y-107850000D02*
X141435000Y-107855000D01*
X143065000Y-107855000D02*
X143065000Y-109650000D01*
X131023099Y-107803400D02*
X141430000Y-107803400D01*
X141430000Y-107803400D02*
X141430000Y-107850000D01*
X143116600Y-107803400D02*
X143065000Y-107855000D01*
X130951100Y-108587000D02*
X130951100Y-107875399D01*
%TO.N,Net-(U1-\u002ARST)*%
X130240000Y-114601100D02*
X129951099Y-114312199D01*
X129332500Y-116410000D02*
X129790397Y-116410000D01*
X129951099Y-114312199D02*
X129951099Y-113235200D01*
X129790397Y-116410000D02*
X130320958Y-115879439D01*
%TO.N,Net-(U1-D+)*%
X122867500Y-109350000D02*
X123529999Y-109350000D01*
X123529999Y-109350000D02*
X125091099Y-110911100D01*
X125091099Y-110911100D02*
X128627000Y-110911100D01*
%TO.N,Net-(U1-D-)*%
X122867500Y-111250000D02*
X123028599Y-111411099D01*
X123028599Y-111411099D02*
X128627000Y-111411099D01*
%TO.N,Net-(J2-DP1)*%
X117170300Y-110749937D02*
X117589400Y-110749937D01*
X121556000Y-109651001D02*
X121556000Y-111590968D01*
X121295968Y-111851000D02*
X117271111Y-111851000D01*
X118989337Y-109350000D02*
X120592500Y-109350000D01*
X117271111Y-111851000D02*
X117170300Y-111750189D01*
X117589400Y-110749937D02*
X118989337Y-109350000D01*
X121254999Y-109350000D02*
X121556000Y-109651001D01*
X120592500Y-109350000D02*
X121254999Y-109350000D01*
X121556000Y-111590968D02*
X121295968Y-111851000D01*
%TO.N,Net-(J2-DN1)*%
X116751200Y-110249811D02*
X117170300Y-110249811D01*
X116398800Y-110602211D02*
X116751200Y-110249811D01*
X116724526Y-111250063D02*
X116398800Y-110924337D01*
X116398800Y-110924337D02*
X116398800Y-110602211D01*
X117170300Y-111250063D02*
X116724526Y-111250063D01*
X117170300Y-111250063D02*
X120592437Y-111250063D01*
X120592437Y-111250063D02*
X120592500Y-111250000D01*
%TO.N,Net-(J2-CC1)*%
X115982203Y-116550000D02*
X115127400Y-115695197D01*
X115127400Y-115695197D02*
X115127400Y-111021085D01*
X115127400Y-111021085D02*
X116398800Y-109749685D01*
X119530000Y-116550000D02*
X115982203Y-116550000D01*
X116398800Y-109749685D02*
X117170300Y-109749685D01*
%TO.N,Net-(J2-CC2)*%
X117170300Y-112750441D02*
X118412941Y-112750441D01*
X118412941Y-112750441D02*
X119472500Y-113810000D01*
%TD*%
%TA.AperFunction,Conductor*%
%TO.N,GNDREF*%
G36*
X116083948Y-110558804D02*
G01*
X116098300Y-110593452D01*
X116098300Y-110963900D01*
X116118779Y-111040326D01*
X116118779Y-111040328D01*
X116128893Y-111057844D01*
X116134029Y-111066740D01*
X116158340Y-111108848D01*
X116484066Y-111434574D01*
X116540015Y-111490523D01*
X116558848Y-111501396D01*
X116580386Y-111513831D01*
X116603216Y-111543584D01*
X116598321Y-111580766D01*
X116592320Y-111588588D01*
X116591230Y-111590218D01*
X116591230Y-111590219D01*
X116588909Y-111593692D01*
X116588300Y-111596753D01*
X116588300Y-111903625D01*
X116588909Y-111906686D01*
X116591230Y-111910159D01*
X116594703Y-111912480D01*
X116597764Y-111913089D01*
X116889093Y-111913089D01*
X116923741Y-111927441D01*
X116927965Y-111932257D01*
X116929839Y-111934699D01*
X116998907Y-112003767D01*
X117013259Y-112038415D01*
X116998907Y-112073063D01*
X116964259Y-112087415D01*
X116597764Y-112087415D01*
X116594703Y-112088024D01*
X116591230Y-112090345D01*
X116588909Y-112093818D01*
X116588300Y-112096879D01*
X116588300Y-112403751D01*
X116588909Y-112406812D01*
X116591230Y-112410285D01*
X116594703Y-112412606D01*
X116597764Y-112413215D01*
X116597765Y-112413215D01*
X116970523Y-112413215D01*
X117005171Y-112427567D01*
X117019523Y-112462215D01*
X117005171Y-112496863D01*
X116995023Y-112504650D01*
X116985788Y-112509981D01*
X116985788Y-112509982D01*
X116929839Y-112565930D01*
X116927965Y-112568373D01*
X116895485Y-112587122D01*
X116889093Y-112587541D01*
X116597764Y-112587541D01*
X116594703Y-112588150D01*
X116591230Y-112590471D01*
X116588909Y-112593944D01*
X116588300Y-112597006D01*
X116588300Y-112850793D01*
X116573948Y-112885441D01*
X116556621Y-112895663D01*
X116556796Y-112896025D01*
X116470673Y-112937500D01*
X116413653Y-113008999D01*
X116413649Y-113009006D01*
X116393300Y-113098164D01*
X116393300Y-113098167D01*
X116393300Y-113707767D01*
X116398452Y-113753495D01*
X116410683Y-113778893D01*
X116414306Y-113811057D01*
X116393300Y-113903090D01*
X116393300Y-114512693D01*
X116398452Y-114558421D01*
X116398453Y-114558424D01*
X116438133Y-114640819D01*
X116438134Y-114640820D01*
X116438863Y-114641401D01*
X116466439Y-114663393D01*
X116484580Y-114696216D01*
X116474197Y-114732253D01*
X116441374Y-114750394D01*
X116435888Y-114750702D01*
X115958247Y-114750702D01*
X115813460Y-114789498D01*
X115813456Y-114789499D01*
X115683641Y-114864449D01*
X115683641Y-114864450D01*
X115577648Y-114970443D01*
X115577647Y-114970443D01*
X115519335Y-115071442D01*
X115489582Y-115094272D01*
X115452400Y-115089377D01*
X115429570Y-115059624D01*
X115427900Y-115046942D01*
X115427900Y-111165852D01*
X115442252Y-111131204D01*
X116014652Y-110558804D01*
X116049300Y-110544452D01*
X116083948Y-110558804D01*
G37*
%TD.AperFunction*%
%TA.AperFunction,Conductor*%
G36*
X119740494Y-109653667D02*
G01*
X119748758Y-109653155D01*
X119757151Y-109660567D01*
X119767495Y-109664852D01*
X119776865Y-109677975D01*
X119790802Y-109706483D01*
X119873517Y-109789198D01*
X119978607Y-109840573D01*
X120026884Y-109847606D01*
X120046738Y-109850500D01*
X120046740Y-109850500D01*
X121138261Y-109850500D01*
X121146557Y-109849290D01*
X121199436Y-109841586D01*
X121235790Y-109850792D01*
X121254988Y-109883008D01*
X121255500Y-109890074D01*
X121255500Y-110709925D01*
X121241148Y-110744573D01*
X121206500Y-110758925D01*
X121199435Y-110758413D01*
X121138262Y-110749500D01*
X121138260Y-110749500D01*
X120046740Y-110749500D01*
X120046738Y-110749500D01*
X119978605Y-110759427D01*
X119978603Y-110759428D01*
X119873519Y-110810801D01*
X119873515Y-110810803D01*
X119790803Y-110893515D01*
X119790799Y-110893521D01*
X119776837Y-110922083D01*
X119748727Y-110946908D01*
X119732816Y-110949563D01*
X117933041Y-110949563D01*
X117898393Y-110935211D01*
X117884041Y-110900563D01*
X117898393Y-110865915D01*
X119099456Y-109664852D01*
X119134104Y-109650500D01*
X119732847Y-109650500D01*
X119740494Y-109653667D01*
G37*
%TD.AperFunction*%
%TA.AperFunction,Conductor*%
G36*
X154295148Y-104084852D02*
G01*
X154309500Y-104119500D01*
X154309500Y-117780500D01*
X154295148Y-117815148D01*
X154260500Y-117829500D01*
X110049500Y-117829500D01*
X110014852Y-117815148D01*
X110000500Y-117780500D01*
X110000500Y-115245079D01*
X111466300Y-115245079D01*
X111466300Y-115394984D01*
X111505096Y-115539771D01*
X111505097Y-115539775D01*
X111564322Y-115642354D01*
X111580047Y-115669590D01*
X111686042Y-115775585D01*
X111733556Y-115803017D01*
X111815856Y-115850534D01*
X111815858Y-115850534D01*
X111815859Y-115850535D01*
X111841655Y-115857447D01*
X111960647Y-115889332D01*
X111960650Y-115889332D01*
X112897952Y-115889332D01*
X112999494Y-115862123D01*
X113042741Y-115850535D01*
X113043147Y-115850301D01*
X113060135Y-115840492D01*
X113172558Y-115775585D01*
X113278553Y-115669590D01*
X113353503Y-115539773D01*
X113382783Y-115430499D01*
X113392300Y-115394984D01*
X113392300Y-115245079D01*
X113353503Y-115100292D01*
X113353502Y-115100288D01*
X113278552Y-114970473D01*
X113172558Y-114864479D01*
X113042743Y-114789529D01*
X113042739Y-114789528D01*
X112897953Y-114750732D01*
X112897950Y-114750732D01*
X111960650Y-114750732D01*
X111960647Y-114750732D01*
X111815860Y-114789528D01*
X111815856Y-114789529D01*
X111686041Y-114864479D01*
X111686041Y-114864480D01*
X111580048Y-114970473D01*
X111580047Y-114970473D01*
X111505097Y-115100288D01*
X111505096Y-115100292D01*
X111466300Y-115245079D01*
X110000500Y-115245079D01*
X110000500Y-110981521D01*
X114826900Y-110981521D01*
X114826900Y-115734760D01*
X114847379Y-115811186D01*
X114847379Y-115811188D01*
X114884394Y-115875300D01*
X114884395Y-115875300D01*
X114884396Y-115875302D01*
X114885447Y-115877123D01*
X114886942Y-115879711D01*
X115329774Y-116322542D01*
X115741743Y-116734511D01*
X115797692Y-116790460D01*
X115866214Y-116830021D01*
X115901681Y-116839524D01*
X115942639Y-116850500D01*
X115942641Y-116850500D01*
X118693000Y-116850500D01*
X118727648Y-116864852D01*
X118742000Y-116899500D01*
X118742000Y-117079275D01*
X118744853Y-117109698D01*
X118744853Y-117109699D01*
X118789704Y-117237876D01*
X118789708Y-117237885D01*
X118870349Y-117347150D01*
X118979614Y-117427791D01*
X118979617Y-117427792D01*
X118979618Y-117427793D01*
X118979620Y-117427793D01*
X118979623Y-117427795D01*
X119107801Y-117472646D01*
X119138234Y-117475500D01*
X119138244Y-117475500D01*
X119921756Y-117475500D01*
X119921766Y-117475500D01*
X119952199Y-117472646D01*
X120080382Y-117427793D01*
X120127271Y-117393188D01*
X120189650Y-117347150D01*
X120270291Y-117237885D01*
X120270291Y-117237884D01*
X120270293Y-117237882D01*
X120306606Y-117134105D01*
X120306606Y-117134104D01*
X125239500Y-117134104D01*
X125239500Y-117265895D01*
X125273607Y-117393184D01*
X125273608Y-117393188D01*
X125321132Y-117475500D01*
X125339500Y-117507314D01*
X125432686Y-117600500D01*
X125466113Y-117619799D01*
X125546811Y-117666391D01*
X125546813Y-117666391D01*
X125546814Y-117666392D01*
X125647207Y-117693292D01*
X125674104Y-117700499D01*
X125674105Y-117700500D01*
X125674108Y-117700500D01*
X125805895Y-117700500D01*
X125805895Y-117700499D01*
X125933186Y-117666392D01*
X126047314Y-117600500D01*
X126140500Y-117507314D01*
X126206392Y-117393186D01*
X126240499Y-117265895D01*
X126240500Y-117265895D01*
X126240500Y-117134105D01*
X126240499Y-117134104D01*
X126225035Y-117076391D01*
X126206392Y-117006814D01*
X126206391Y-117006813D01*
X126206391Y-117006811D01*
X126164617Y-116934457D01*
X126140500Y-116892686D01*
X126047314Y-116799500D01*
X125933188Y-116733608D01*
X125933184Y-116733607D01*
X125805895Y-116699500D01*
X125805892Y-116699500D01*
X125674108Y-116699500D01*
X125674105Y-116699500D01*
X125546815Y-116733607D01*
X125546811Y-116733608D01*
X125432685Y-116799500D01*
X125432685Y-116799501D01*
X125339501Y-116892685D01*
X125339500Y-116892685D01*
X125273608Y-117006811D01*
X125273607Y-117006815D01*
X125239500Y-117134104D01*
X120306606Y-117134104D01*
X120313390Y-117114718D01*
X120313390Y-117114716D01*
X120315146Y-117109699D01*
X120318000Y-117079266D01*
X120318000Y-116020734D01*
X120315146Y-115990301D01*
X120307867Y-115969500D01*
X120270295Y-115862123D01*
X120270291Y-115862114D01*
X120189650Y-115752849D01*
X120080385Y-115672208D01*
X120080376Y-115672204D01*
X119952198Y-115627353D01*
X119921775Y-115624500D01*
X119921766Y-115624500D01*
X119138234Y-115624500D01*
X119138224Y-115624500D01*
X119107801Y-115627353D01*
X119107800Y-115627353D01*
X118979623Y-115672204D01*
X118979614Y-115672208D01*
X118870349Y-115752849D01*
X118789708Y-115862114D01*
X118789704Y-115862123D01*
X118744853Y-115990300D01*
X118744853Y-115990301D01*
X118742000Y-116020724D01*
X118742000Y-116200500D01*
X118727648Y-116235148D01*
X118693000Y-116249500D01*
X116126970Y-116249500D01*
X116092322Y-116235148D01*
X115798269Y-115941095D01*
X115783917Y-115906447D01*
X115798269Y-115871799D01*
X115832917Y-115857447D01*
X115845598Y-115859116D01*
X115856799Y-115862118D01*
X115958248Y-115889302D01*
X115958250Y-115889302D01*
X117200352Y-115889302D01*
X117301782Y-115862123D01*
X117345141Y-115850505D01*
X117345495Y-115850301D01*
X117362535Y-115840462D01*
X117474958Y-115775555D01*
X117580953Y-115669560D01*
X117655903Y-115539743D01*
X117685175Y-115430499D01*
X117694700Y-115394954D01*
X117694700Y-115245049D01*
X117655903Y-115100262D01*
X117655902Y-115100258D01*
X117580970Y-114970474D01*
X117580953Y-114970444D01*
X117474958Y-114864449D01*
X117463980Y-114858111D01*
X117380006Y-114809628D01*
X117357176Y-114779875D01*
X117362071Y-114742693D01*
X117391824Y-114719863D01*
X117404506Y-114718193D01*
X117741801Y-114718193D01*
X117746431Y-114717671D01*
X117787528Y-114713041D01*
X117869927Y-114673359D01*
X117926949Y-114601856D01*
X117947300Y-114512693D01*
X117947300Y-113969500D01*
X117961652Y-113934852D01*
X117996300Y-113920500D01*
X118016159Y-113920500D01*
X118040655Y-113927063D01*
X118056814Y-113936392D01*
X118056818Y-113936393D01*
X118184104Y-113970499D01*
X118184105Y-113970500D01*
X118184108Y-113970500D01*
X118315895Y-113970500D01*
X118315895Y-113970499D01*
X118443186Y-113936392D01*
X118445854Y-113934852D01*
X118463151Y-113924865D01*
X118557314Y-113870500D01*
X118600852Y-113826962D01*
X118635500Y-113812610D01*
X118670148Y-113826962D01*
X118684500Y-113861610D01*
X118684500Y-114339275D01*
X118687353Y-114369698D01*
X118687353Y-114369699D01*
X118732204Y-114497876D01*
X118732208Y-114497885D01*
X118812849Y-114607150D01*
X118922114Y-114687791D01*
X118922117Y-114687792D01*
X118922118Y-114687793D01*
X118922120Y-114687793D01*
X118922123Y-114687795D01*
X119049178Y-114732253D01*
X119050301Y-114732646D01*
X119080734Y-114735500D01*
X119080744Y-114735500D01*
X119864256Y-114735500D01*
X119864266Y-114735500D01*
X119894699Y-114732646D01*
X120022882Y-114687793D01*
X120042440Y-114673359D01*
X120132150Y-114607150D01*
X120212791Y-114497885D01*
X120212791Y-114497884D01*
X120212793Y-114497882D01*
X120257646Y-114369699D01*
X120260500Y-114339266D01*
X120260500Y-113280734D01*
X120257646Y-113250301D01*
X120244795Y-113213576D01*
X120212795Y-113122123D01*
X120212791Y-113122114D01*
X120132150Y-113012849D01*
X120022885Y-112932208D01*
X120022876Y-112932204D01*
X119894698Y-112887353D01*
X119864275Y-112884500D01*
X119864266Y-112884500D01*
X119080734Y-112884500D01*
X119080724Y-112884500D01*
X119050304Y-112887353D01*
X119050301Y-112887353D01*
X119050301Y-112887354D01*
X119023448Y-112896749D01*
X118986005Y-112894646D01*
X118972618Y-112885147D01*
X118597454Y-112509983D01*
X118597448Y-112509978D01*
X118574730Y-112496863D01*
X118570615Y-112494487D01*
X118557923Y-112487159D01*
X118528932Y-112470420D01*
X118528928Y-112470419D01*
X118452505Y-112449941D01*
X118452503Y-112449941D01*
X117801300Y-112449941D01*
X117766652Y-112435589D01*
X117752300Y-112400941D01*
X117752300Y-112200500D01*
X117766652Y-112165852D01*
X117801300Y-112151500D01*
X121335532Y-112151500D01*
X121362198Y-112144354D01*
X121411957Y-112131021D01*
X121480479Y-112091460D01*
X121536428Y-112035511D01*
X121796460Y-111775479D01*
X121836022Y-111706956D01*
X121856499Y-111630533D01*
X121856500Y-111630533D01*
X121856500Y-109611437D01*
X121845025Y-109568615D01*
X121845025Y-109568614D01*
X121836022Y-109535013D01*
X121835010Y-109533261D01*
X121800877Y-109474141D01*
X121796460Y-109466490D01*
X121496708Y-109166738D01*
X122004500Y-109166738D01*
X122004500Y-109533261D01*
X122014427Y-109601394D01*
X122014428Y-109601396D01*
X122021730Y-109616332D01*
X122065802Y-109706483D01*
X122065803Y-109706484D01*
X122149671Y-109790352D01*
X122164023Y-109825000D01*
X122149671Y-109859648D01*
X122065803Y-109943515D01*
X122065801Y-109943519D01*
X122014428Y-110048603D01*
X122014427Y-110048605D01*
X122004500Y-110116738D01*
X122004500Y-110483261D01*
X122014427Y-110551394D01*
X122014428Y-110551396D01*
X122021287Y-110565426D01*
X122065802Y-110656483D01*
X122065803Y-110656484D01*
X122149671Y-110740352D01*
X122164023Y-110775000D01*
X122149671Y-110809648D01*
X122065803Y-110893515D01*
X122065801Y-110893519D01*
X122014428Y-110998603D01*
X122014427Y-110998605D01*
X122004500Y-111066738D01*
X122004500Y-111433261D01*
X122014427Y-111501394D01*
X122014428Y-111501396D01*
X122028453Y-111530084D01*
X122065802Y-111606483D01*
X122148517Y-111689198D01*
X122253607Y-111740573D01*
X122301884Y-111747606D01*
X122321738Y-111750500D01*
X122321740Y-111750500D01*
X123413262Y-111750500D01*
X123430590Y-111747974D01*
X123481393Y-111740573D01*
X123530476Y-111716577D01*
X123551997Y-111711599D01*
X127129302Y-111711599D01*
X127163950Y-111725951D01*
X127178302Y-111760599D01*
X127163950Y-111795247D01*
X127127949Y-111831248D01*
X127093301Y-111845600D01*
X126433424Y-111845600D01*
X126403001Y-111848453D01*
X126403000Y-111848453D01*
X126274823Y-111893304D01*
X126274814Y-111893308D01*
X126165549Y-111973949D01*
X126084908Y-112083214D01*
X126084904Y-112083223D01*
X126040053Y-112211400D01*
X126040053Y-112211401D01*
X126037200Y-112241824D01*
X126037200Y-113300375D01*
X126040053Y-113330798D01*
X126040053Y-113330799D01*
X126084904Y-113458976D01*
X126084908Y-113458985D01*
X126165549Y-113568250D01*
X126274814Y-113648891D01*
X126274816Y-113648891D01*
X126274818Y-113648893D01*
X126341884Y-113672360D01*
X126369847Y-113697349D01*
X126374700Y-113718610D01*
X126374700Y-114239592D01*
X126360348Y-114274240D01*
X126341884Y-114285842D01*
X126234821Y-114323305D01*
X126234814Y-114323308D01*
X126125549Y-114403949D01*
X126044908Y-114513214D01*
X126044904Y-114513223D01*
X126000053Y-114641400D01*
X126000053Y-114641401D01*
X125997200Y-114671824D01*
X125997200Y-115730375D01*
X126000053Y-115760798D01*
X126000053Y-115760799D01*
X126044904Y-115888976D01*
X126044908Y-115888985D01*
X126125549Y-115998250D01*
X126212858Y-116062686D01*
X126234818Y-116078893D01*
X126246682Y-116083044D01*
X126274647Y-116108033D01*
X126279500Y-116129295D01*
X126279500Y-116376159D01*
X126272936Y-116400655D01*
X126263608Y-116416814D01*
X126263606Y-116416818D01*
X126229500Y-116544104D01*
X126229500Y-116675895D01*
X126263607Y-116803184D01*
X126263608Y-116803188D01*
X126303436Y-116872170D01*
X126329500Y-116917314D01*
X126422686Y-117010500D01*
X126464457Y-117034617D01*
X126536811Y-117076391D01*
X126536813Y-117076391D01*
X126536814Y-117076392D01*
X126547574Y-117079275D01*
X126664104Y-117110499D01*
X126664105Y-117110500D01*
X126664108Y-117110500D01*
X126795895Y-117110500D01*
X126795895Y-117110499D01*
X126923186Y-117076392D01*
X127037314Y-117010500D01*
X127130500Y-116917314D01*
X127196392Y-116803186D01*
X127230499Y-116675895D01*
X127230500Y-116675895D01*
X127230500Y-116544105D01*
X127230499Y-116544104D01*
X127196393Y-116416818D01*
X127196392Y-116416814D01*
X127187063Y-116400655D01*
X127180500Y-116376159D01*
X127180500Y-116167925D01*
X127194852Y-116133277D01*
X127213316Y-116121675D01*
X127335582Y-116078893D01*
X127444850Y-115998250D01*
X127514699Y-115903608D01*
X127525491Y-115888985D01*
X127525491Y-115888984D01*
X127525493Y-115888982D01*
X127570346Y-115760799D01*
X127573200Y-115730366D01*
X127573200Y-115700600D01*
X127587552Y-115665952D01*
X127622200Y-115651600D01*
X128548157Y-115651600D01*
X128582805Y-115665952D01*
X128597157Y-115700600D01*
X128592736Y-115718412D01*
X128593419Y-115718651D01*
X128547353Y-115850300D01*
X128547353Y-115850301D01*
X128544500Y-115880724D01*
X128544500Y-116939275D01*
X128547353Y-116969698D01*
X128547353Y-116969699D01*
X128592204Y-117097876D01*
X128592208Y-117097885D01*
X128672849Y-117207150D01*
X128782114Y-117287791D01*
X128782117Y-117287792D01*
X128782118Y-117287793D01*
X128782120Y-117287793D01*
X128782123Y-117287795D01*
X128910301Y-117332646D01*
X128940734Y-117335500D01*
X128940744Y-117335500D01*
X129724256Y-117335500D01*
X129724266Y-117335500D01*
X129754699Y-117332646D01*
X129882882Y-117287793D01*
X129992150Y-117207150D01*
X130046057Y-117134108D01*
X130072791Y-117097885D01*
X130072791Y-117097884D01*
X130072793Y-117097882D01*
X130117646Y-116969699D01*
X130120500Y-116939266D01*
X130120500Y-116525163D01*
X130134851Y-116490516D01*
X130231076Y-116394290D01*
X130265724Y-116379939D01*
X130386853Y-116379939D01*
X130386853Y-116379938D01*
X130514144Y-116345831D01*
X130546001Y-116327437D01*
X130583181Y-116322542D01*
X130612935Y-116345372D01*
X130619500Y-116369873D01*
X130619500Y-116939275D01*
X130622353Y-116969698D01*
X130622353Y-116969699D01*
X130667204Y-117097876D01*
X130667208Y-117097885D01*
X130747849Y-117207150D01*
X130857114Y-117287791D01*
X130857117Y-117287792D01*
X130857118Y-117287793D01*
X130857120Y-117287793D01*
X130857123Y-117287795D01*
X130985301Y-117332646D01*
X131015734Y-117335500D01*
X131015744Y-117335500D01*
X131799256Y-117335500D01*
X131799266Y-117335500D01*
X131829699Y-117332646D01*
X131957882Y-117287793D01*
X132067150Y-117207150D01*
X132096198Y-117167791D01*
X132121060Y-117134104D01*
X133939500Y-117134104D01*
X133939500Y-117265895D01*
X133973607Y-117393184D01*
X133973608Y-117393188D01*
X134021132Y-117475500D01*
X134039500Y-117507314D01*
X134132686Y-117600500D01*
X134166113Y-117619799D01*
X134246811Y-117666391D01*
X134246813Y-117666391D01*
X134246814Y-117666392D01*
X134347207Y-117693292D01*
X134374104Y-117700499D01*
X134374105Y-117700500D01*
X134374108Y-117700500D01*
X134505895Y-117700500D01*
X134505895Y-117700499D01*
X134633186Y-117666392D01*
X134649344Y-117657063D01*
X134673841Y-117650500D01*
X136116811Y-117650500D01*
X136146930Y-117642428D01*
X136207173Y-117626286D01*
X136231387Y-117619799D01*
X136334114Y-117560489D01*
X136664751Y-117229852D01*
X136699399Y-117215500D01*
X137359256Y-117215500D01*
X137359266Y-117215500D01*
X137389699Y-117212646D01*
X137517882Y-117167793D01*
X137589797Y-117114718D01*
X137627150Y-117087150D01*
X137707791Y-116977885D01*
X137707791Y-116977884D01*
X137707793Y-116977882D01*
X137721309Y-116939256D01*
X137731261Y-116910816D01*
X137756251Y-116882853D01*
X137777511Y-116878000D01*
X143251810Y-116878000D01*
X143260308Y-116875722D01*
X143273568Y-116872169D01*
X143286249Y-116870500D01*
X143315895Y-116870500D01*
X143315895Y-116870499D01*
X143443186Y-116836392D01*
X143557314Y-116770500D01*
X143650500Y-116677314D01*
X143716392Y-116563186D01*
X143750499Y-116435895D01*
X143750500Y-116435895D01*
X143750500Y-116304105D01*
X143750499Y-116304104D01*
X143732022Y-116235148D01*
X143716392Y-116176814D01*
X143716391Y-116176813D01*
X143716391Y-116176811D01*
X143650499Y-116062685D01*
X143557314Y-115969500D01*
X143443188Y-115903608D01*
X143443184Y-115903607D01*
X143315895Y-115869500D01*
X143315892Y-115869500D01*
X143184108Y-115869500D01*
X143184105Y-115869500D01*
X143056815Y-115903607D01*
X143056811Y-115903608D01*
X142941067Y-115970435D01*
X142916567Y-115977000D01*
X137777511Y-115977000D01*
X137742863Y-115962648D01*
X137731261Y-115944184D01*
X137707794Y-115877121D01*
X137707791Y-115877114D01*
X137627150Y-115767849D01*
X137517885Y-115687208D01*
X137517876Y-115687204D01*
X137389698Y-115642353D01*
X137359275Y-115639500D01*
X137359266Y-115639500D01*
X136300734Y-115639500D01*
X136300724Y-115639500D01*
X136270301Y-115642353D01*
X136270300Y-115642353D01*
X136142123Y-115687204D01*
X136142114Y-115687208D01*
X136032849Y-115767849D01*
X135952208Y-115877114D01*
X135952204Y-115877123D01*
X135907353Y-116005300D01*
X135907353Y-116005301D01*
X135904500Y-116035724D01*
X135904500Y-116695601D01*
X135890148Y-116730249D01*
X135885249Y-116735148D01*
X135850601Y-116749500D01*
X134673841Y-116749500D01*
X134649344Y-116742936D01*
X134633186Y-116733608D01*
X134633183Y-116733607D01*
X134633181Y-116733606D01*
X134505895Y-116699500D01*
X134505892Y-116699500D01*
X134374108Y-116699500D01*
X134374105Y-116699500D01*
X134246815Y-116733607D01*
X134246811Y-116733608D01*
X134132685Y-116799500D01*
X134132685Y-116799501D01*
X134039501Y-116892685D01*
X134039500Y-116892685D01*
X133973608Y-117006811D01*
X133973607Y-117006815D01*
X133939500Y-117134104D01*
X132121060Y-117134104D01*
X132144903Y-117101799D01*
X132147791Y-117097885D01*
X132147791Y-117097884D01*
X132147793Y-117097882D01*
X132192646Y-116969699D01*
X132195500Y-116939266D01*
X132195500Y-116279398D01*
X132209851Y-116244751D01*
X134493877Y-113960724D01*
X135904500Y-113960724D01*
X135904500Y-114744275D01*
X135907353Y-114774698D01*
X135907353Y-114774699D01*
X135952204Y-114902876D01*
X135952208Y-114902885D01*
X136032849Y-115012150D01*
X136142114Y-115092791D01*
X136142117Y-115092792D01*
X136142118Y-115092793D01*
X136142120Y-115092793D01*
X136142123Y-115092795D01*
X136270301Y-115137646D01*
X136300734Y-115140500D01*
X136300744Y-115140500D01*
X137359256Y-115140500D01*
X137359266Y-115140500D01*
X137389699Y-115137646D01*
X137517882Y-115092793D01*
X137627150Y-115012150D01*
X137657909Y-114970473D01*
X137662610Y-114964104D01*
X144499500Y-114964104D01*
X144499500Y-115095895D01*
X144533607Y-115223184D01*
X144533608Y-115223188D01*
X144599500Y-115337314D01*
X144692686Y-115430500D01*
X144726111Y-115449798D01*
X144806811Y-115496391D01*
X144806813Y-115496391D01*
X144806814Y-115496392D01*
X144907207Y-115523292D01*
X144934104Y-115530499D01*
X144934105Y-115530500D01*
X144934108Y-115530500D01*
X145065895Y-115530500D01*
X145065895Y-115530499D01*
X145193186Y-115496392D01*
X145209344Y-115487063D01*
X145233841Y-115480500D01*
X149019311Y-115480500D01*
X149057768Y-115470194D01*
X149115457Y-115454737D01*
X149133887Y-115449799D01*
X149236614Y-115390489D01*
X150093331Y-114533770D01*
X150127978Y-114519419D01*
X150146726Y-114523149D01*
X150163580Y-114530130D01*
X150366535Y-114570500D01*
X150366538Y-114570500D01*
X150573462Y-114570500D01*
X150573465Y-114570500D01*
X150776420Y-114530130D01*
X150967598Y-114450941D01*
X151139655Y-114335977D01*
X151285977Y-114189655D01*
X151400941Y-114017598D01*
X151480130Y-113826420D01*
X151520500Y-113623465D01*
X151520500Y-113416535D01*
X151480130Y-113213580D01*
X151400941Y-113022402D01*
X151285977Y-112850345D01*
X151139655Y-112704023D01*
X150967598Y-112589059D01*
X150967596Y-112589058D01*
X150776423Y-112509871D01*
X150776417Y-112509869D01*
X150662243Y-112487159D01*
X150573465Y-112469500D01*
X150366535Y-112469500D01*
X150277757Y-112487159D01*
X150163582Y-112509869D01*
X150163576Y-112509871D01*
X149972403Y-112589058D01*
X149800345Y-112704022D01*
X149654022Y-112850345D01*
X149539058Y-113022403D01*
X149459871Y-113213576D01*
X149459869Y-113213582D01*
X149442361Y-113301603D01*
X149419500Y-113416535D01*
X149419500Y-113623465D01*
X149453825Y-113796030D01*
X149459870Y-113826420D01*
X149459870Y-113826421D01*
X149466849Y-113843269D01*
X149466849Y-113880772D01*
X149456227Y-113896668D01*
X148787749Y-114565148D01*
X148753101Y-114579500D01*
X145233841Y-114579500D01*
X145209344Y-114572936D01*
X145193186Y-114563608D01*
X145193183Y-114563607D01*
X145193181Y-114563606D01*
X145065895Y-114529500D01*
X145065892Y-114529500D01*
X144934108Y-114529500D01*
X144934105Y-114529500D01*
X144806815Y-114563607D01*
X144806811Y-114563608D01*
X144692685Y-114629500D01*
X144692685Y-114629501D01*
X144599501Y-114722685D01*
X144599500Y-114722685D01*
X144533608Y-114836811D01*
X144533607Y-114836815D01*
X144499500Y-114964104D01*
X137662610Y-114964104D01*
X137686452Y-114931799D01*
X137707791Y-114902885D01*
X137707791Y-114902884D01*
X137707793Y-114902882D01*
X137752646Y-114774699D01*
X137755500Y-114744266D01*
X137755500Y-114702000D01*
X137769852Y-114667352D01*
X137804500Y-114653000D01*
X139333397Y-114653000D01*
X139350887Y-114657338D01*
X139351152Y-114656581D01*
X139464426Y-114696216D01*
X139482802Y-114702646D01*
X139513235Y-114705500D01*
X140546764Y-114705499D01*
X140577198Y-114702646D01*
X140705382Y-114657793D01*
X140711877Y-114653000D01*
X140814650Y-114577150D01*
X140895291Y-114467885D01*
X140895291Y-114467884D01*
X140895293Y-114467882D01*
X140940146Y-114339698D01*
X140943000Y-114309265D01*
X140942999Y-112950736D01*
X140940146Y-112920302D01*
X140931651Y-112896025D01*
X140895295Y-112792123D01*
X140895291Y-112792114D01*
X140814650Y-112682849D01*
X140705385Y-112602208D01*
X140705376Y-112602204D01*
X140577197Y-112557353D01*
X140546765Y-112554500D01*
X139513246Y-112554500D01*
X139513222Y-112554502D01*
X139482804Y-112557353D01*
X139482798Y-112557354D01*
X139354623Y-112602204D01*
X139354614Y-112602208D01*
X139245349Y-112682849D01*
X139164708Y-112792114D01*
X139164704Y-112792123D01*
X139119853Y-112920301D01*
X139119853Y-112920302D01*
X139117000Y-112950725D01*
X139117000Y-112950735D01*
X139117000Y-113498397D01*
X139117001Y-114003000D01*
X139102649Y-114037648D01*
X139068001Y-114052000D01*
X137804500Y-114052000D01*
X137769852Y-114037648D01*
X137755500Y-114003000D01*
X137755500Y-113960743D01*
X137755499Y-113960724D01*
X137752646Y-113930301D01*
X137752646Y-113930300D01*
X137707795Y-113802123D01*
X137707791Y-113802114D01*
X137627150Y-113692849D01*
X137517885Y-113612208D01*
X137517876Y-113612204D01*
X137389698Y-113567353D01*
X137359275Y-113564500D01*
X137359266Y-113564500D01*
X136300734Y-113564500D01*
X136300724Y-113564500D01*
X136270301Y-113567353D01*
X136270300Y-113567353D01*
X136142123Y-113612204D01*
X136142114Y-113612208D01*
X136032849Y-113692849D01*
X135952208Y-113802114D01*
X135952204Y-113802123D01*
X135907353Y-113930300D01*
X135907353Y-113930301D01*
X135904500Y-113960724D01*
X134493877Y-113960724D01*
X135962666Y-112491935D01*
X135997313Y-112477584D01*
X136026410Y-112487159D01*
X136122114Y-112557791D01*
X136122117Y-112557792D01*
X136122118Y-112557793D01*
X136122120Y-112557793D01*
X136122123Y-112557795D01*
X136211471Y-112589059D01*
X136250301Y-112602646D01*
X136280734Y-112605500D01*
X136280744Y-112605500D01*
X137339256Y-112605500D01*
X137339266Y-112605500D01*
X137369699Y-112602646D01*
X137497882Y-112557793D01*
X137562670Y-112509978D01*
X137607150Y-112477150D01*
X137687791Y-112367885D01*
X137687791Y-112367884D01*
X137687793Y-112367882D01*
X137696011Y-112344394D01*
X137711261Y-112300816D01*
X137736251Y-112272853D01*
X137757511Y-112268000D01*
X149691811Y-112268000D01*
X149721930Y-112259928D01*
X149782173Y-112243786D01*
X149806387Y-112237299D01*
X149909114Y-112177989D01*
X150093330Y-111993771D01*
X150127978Y-111979420D01*
X150146728Y-111983149D01*
X150163580Y-111990130D01*
X150366535Y-112030500D01*
X150366538Y-112030500D01*
X150573462Y-112030500D01*
X150573465Y-112030500D01*
X150776420Y-111990130D01*
X150967598Y-111910941D01*
X151139655Y-111795977D01*
X151285977Y-111649655D01*
X151400941Y-111477598D01*
X151480130Y-111286420D01*
X151520500Y-111083465D01*
X151520500Y-110876535D01*
X151480130Y-110673580D01*
X151400941Y-110482402D01*
X151285977Y-110310345D01*
X151139655Y-110164023D01*
X151136726Y-110162066D01*
X151033831Y-110093314D01*
X150967598Y-110049059D01*
X150966502Y-110048605D01*
X150776423Y-109969871D01*
X150776417Y-109969869D01*
X150694572Y-109953589D01*
X150573465Y-109929500D01*
X150366535Y-109929500D01*
X150265520Y-109949592D01*
X150163582Y-109969869D01*
X150163576Y-109969871D01*
X149972403Y-110049058D01*
X149800345Y-110164022D01*
X149654022Y-110310345D01*
X149539058Y-110482403D01*
X149459871Y-110673576D01*
X149459869Y-110673582D01*
X149441814Y-110764352D01*
X149419500Y-110876535D01*
X149419500Y-111083465D01*
X149455480Y-111264351D01*
X149459870Y-111286420D01*
X149459870Y-111286421D01*
X149465184Y-111299249D01*
X149465184Y-111336752D01*
X149438665Y-111363270D01*
X149419914Y-111367000D01*
X137757511Y-111367000D01*
X137722863Y-111352648D01*
X137711261Y-111334184D01*
X137687794Y-111267121D01*
X137687791Y-111267114D01*
X137607150Y-111157849D01*
X137497885Y-111077208D01*
X137497876Y-111077204D01*
X137369698Y-111032353D01*
X137339275Y-111029500D01*
X137339266Y-111029500D01*
X136280734Y-111029500D01*
X136280724Y-111029500D01*
X136250301Y-111032353D01*
X136250300Y-111032353D01*
X136122123Y-111077204D01*
X136122114Y-111077208D01*
X136012849Y-111157849D01*
X135932208Y-111267115D01*
X135901316Y-111355398D01*
X135898126Y-111358967D01*
X135897502Y-111363712D01*
X135885994Y-111372543D01*
X135876326Y-111383362D01*
X135867750Y-111386544D01*
X135862410Y-111387974D01*
X135850326Y-111391213D01*
X135826115Y-111397699D01*
X135826110Y-111397701D01*
X135723385Y-111457011D01*
X135723385Y-111457012D01*
X131941648Y-115238749D01*
X131907000Y-115253101D01*
X131872352Y-115238749D01*
X131858000Y-115204101D01*
X131858000Y-115159288D01*
X131827299Y-115044715D01*
X131827298Y-115044712D01*
X131784436Y-114970474D01*
X131767989Y-114941987D01*
X131684113Y-114858111D01*
X131666613Y-114840611D01*
X131660038Y-114836815D01*
X131563887Y-114781301D01*
X131563884Y-114781300D01*
X131449312Y-114750600D01*
X131449309Y-114750600D01*
X130781956Y-114750600D01*
X130747308Y-114736248D01*
X130732956Y-114701600D01*
X130734626Y-114688918D01*
X130739419Y-114671023D01*
X130740499Y-114666995D01*
X130740500Y-114666995D01*
X130740500Y-114535205D01*
X130740499Y-114535204D01*
X130706392Y-114407915D01*
X130706391Y-114407911D01*
X130664617Y-114335557D01*
X130640500Y-114293786D01*
X130547314Y-114200600D01*
X130528355Y-114189654D01*
X130433188Y-114134708D01*
X130433184Y-114134707D01*
X130305895Y-114100600D01*
X130305892Y-114100600D01*
X130300599Y-114100600D01*
X130265951Y-114086248D01*
X130251599Y-114051600D01*
X130251599Y-113967167D01*
X130265951Y-113932519D01*
X130300599Y-113918167D01*
X130303301Y-113918300D01*
X130304353Y-113918300D01*
X130597846Y-113918300D01*
X130597849Y-113918300D01*
X130656332Y-113906667D01*
X130673876Y-113894943D01*
X130710658Y-113887626D01*
X130728322Y-113894942D01*
X130745869Y-113906667D01*
X130804352Y-113918300D01*
X130804355Y-113918300D01*
X131097845Y-113918300D01*
X131097848Y-113918300D01*
X131156331Y-113906667D01*
X131173875Y-113894943D01*
X131210657Y-113887626D01*
X131228321Y-113894942D01*
X131245868Y-113906667D01*
X131304351Y-113918300D01*
X131304354Y-113918300D01*
X131597844Y-113918300D01*
X131597847Y-113918300D01*
X131656330Y-113906667D01*
X131671294Y-113896668D01*
X131673876Y-113894943D01*
X131710658Y-113887625D01*
X131728324Y-113894943D01*
X131745868Y-113906666D01*
X131745870Y-113906667D01*
X131804353Y-113918300D01*
X131804356Y-113918300D01*
X132097846Y-113918300D01*
X132097849Y-113918300D01*
X132156332Y-113906667D01*
X132173876Y-113894943D01*
X132210658Y-113887626D01*
X132228322Y-113894942D01*
X132245869Y-113906667D01*
X132304352Y-113918300D01*
X132304355Y-113918300D01*
X132597845Y-113918300D01*
X132597848Y-113918300D01*
X132656331Y-113906667D01*
X132722652Y-113862352D01*
X132766967Y-113796031D01*
X132778600Y-113737548D01*
X132778600Y-112787600D01*
X132792952Y-112752952D01*
X132827600Y-112738600D01*
X133777545Y-112738600D01*
X133777548Y-112738600D01*
X133836031Y-112726967D01*
X133902352Y-112682652D01*
X133946667Y-112616331D01*
X133958300Y-112557848D01*
X133958300Y-112264352D01*
X133946667Y-112205869D01*
X133934942Y-112188322D01*
X133927627Y-112151540D01*
X133934944Y-112133876D01*
X133946666Y-112116333D01*
X133946665Y-112116333D01*
X133946667Y-112116332D01*
X133958300Y-112057849D01*
X133958300Y-111764353D01*
X133946667Y-111705870D01*
X133934943Y-111688324D01*
X133927625Y-111651542D01*
X133934943Y-111633876D01*
X133946666Y-111616331D01*
X133946665Y-111616331D01*
X133946667Y-111616330D01*
X133958300Y-111557847D01*
X133958300Y-111264351D01*
X133946667Y-111205868D01*
X133934942Y-111188321D01*
X133927627Y-111151539D01*
X133934944Y-111133875D01*
X133946666Y-111116332D01*
X133946665Y-111116332D01*
X133946667Y-111116331D01*
X133958300Y-111057848D01*
X133958300Y-110764352D01*
X133946667Y-110705869D01*
X133934942Y-110688322D01*
X133927627Y-110651540D01*
X133934944Y-110633876D01*
X133946666Y-110616333D01*
X133946665Y-110616333D01*
X133946667Y-110616332D01*
X133958300Y-110557849D01*
X133958300Y-110264353D01*
X133946667Y-110205870D01*
X133938067Y-110193000D01*
X133934943Y-110188324D01*
X133927625Y-110151542D01*
X133934943Y-110133876D01*
X133946666Y-110116331D01*
X133946665Y-110116331D01*
X133946667Y-110116330D01*
X133958300Y-110057847D01*
X133958300Y-109764351D01*
X133946667Y-109705868D01*
X133934942Y-109688321D01*
X133927627Y-109651539D01*
X133934944Y-109633875D01*
X133946667Y-109616331D01*
X133958300Y-109557848D01*
X133958300Y-109350724D01*
X135884500Y-109350724D01*
X135884500Y-110134275D01*
X135887353Y-110164698D01*
X135887353Y-110164699D01*
X135932204Y-110292876D01*
X135932208Y-110292885D01*
X136012849Y-110402150D01*
X136122114Y-110482791D01*
X136122117Y-110482792D01*
X136122118Y-110482793D01*
X136122120Y-110482793D01*
X136122123Y-110482795D01*
X136136670Y-110487885D01*
X136250301Y-110527646D01*
X136280734Y-110530500D01*
X136280744Y-110530500D01*
X137339256Y-110530500D01*
X137339266Y-110530500D01*
X137369699Y-110527646D01*
X137497882Y-110482793D01*
X137498411Y-110482403D01*
X137607150Y-110402150D01*
X137687791Y-110292885D01*
X137687791Y-110292884D01*
X137687793Y-110292882D01*
X137697776Y-110264353D01*
X137711261Y-110225816D01*
X137736251Y-110197853D01*
X137757511Y-110193000D01*
X139150501Y-110193000D01*
X139185149Y-110207352D01*
X139199501Y-110242000D01*
X139199501Y-110329264D01*
X139199501Y-110329272D01*
X139199502Y-110329277D01*
X139202353Y-110359695D01*
X139202354Y-110359701D01*
X139247204Y-110487876D01*
X139247208Y-110487885D01*
X139327849Y-110597150D01*
X139437114Y-110677791D01*
X139437117Y-110677792D01*
X139437118Y-110677793D01*
X139437120Y-110677793D01*
X139437123Y-110677795D01*
X139528947Y-110709925D01*
X139565302Y-110722646D01*
X139595735Y-110725500D01*
X140629264Y-110725499D01*
X140659698Y-110722646D01*
X140787882Y-110677793D01*
X140793591Y-110673580D01*
X140897150Y-110597150D01*
X140977791Y-110487885D01*
X140977791Y-110487884D01*
X140977793Y-110487882D01*
X141022646Y-110359698D01*
X141025500Y-110329265D01*
X141025499Y-108970736D01*
X141022646Y-108940302D01*
X141021699Y-108937596D01*
X140977795Y-108812123D01*
X140977791Y-108812114D01*
X140897150Y-108702849D01*
X140787885Y-108622208D01*
X140787876Y-108622204D01*
X140659697Y-108577353D01*
X140629265Y-108574500D01*
X139595746Y-108574500D01*
X139595722Y-108574502D01*
X139565304Y-108577353D01*
X139565298Y-108577354D01*
X139437123Y-108622204D01*
X139437114Y-108622208D01*
X139327849Y-108702849D01*
X139247208Y-108812114D01*
X139247204Y-108812123D01*
X139202353Y-108940301D01*
X139202353Y-108940302D01*
X139199500Y-108970725D01*
X139199500Y-109243000D01*
X139185148Y-109277648D01*
X139150500Y-109292000D01*
X137757511Y-109292000D01*
X137722863Y-109277648D01*
X137711261Y-109259184D01*
X137687794Y-109192121D01*
X137687791Y-109192114D01*
X137607150Y-109082849D01*
X137497885Y-109002208D01*
X137497876Y-109002204D01*
X137369698Y-108957353D01*
X137339275Y-108954500D01*
X137339266Y-108954500D01*
X136280734Y-108954500D01*
X136280724Y-108954500D01*
X136250301Y-108957353D01*
X136250300Y-108957353D01*
X136122123Y-109002204D01*
X136122114Y-109002208D01*
X136012849Y-109082849D01*
X135932208Y-109192114D01*
X135932204Y-109192123D01*
X135887353Y-109320300D01*
X135887353Y-109320301D01*
X135884500Y-109350724D01*
X133958300Y-109350724D01*
X133958300Y-109264352D01*
X133946667Y-109205869D01*
X133917812Y-109162685D01*
X133902352Y-109139547D01*
X133857613Y-109109654D01*
X133836031Y-109095233D01*
X133777548Y-109083600D01*
X133777545Y-109083600D01*
X132827600Y-109083600D01*
X132792952Y-109069248D01*
X132778600Y-109034600D01*
X132778600Y-108152900D01*
X132792952Y-108118252D01*
X132827600Y-108103900D01*
X141251979Y-108103900D01*
X141276479Y-108110465D01*
X141319009Y-108135020D01*
X141319011Y-108135020D01*
X141319012Y-108135021D01*
X141339459Y-108140500D01*
X141395436Y-108155500D01*
X141395438Y-108155500D01*
X141474564Y-108155500D01*
X141522573Y-108142635D01*
X141550988Y-108135021D01*
X141553481Y-108133582D01*
X141593521Y-108110465D01*
X141618021Y-108103900D01*
X142715500Y-108103900D01*
X142750148Y-108118252D01*
X142764500Y-108152900D01*
X142764500Y-108525500D01*
X142750148Y-108560148D01*
X142715500Y-108574500D01*
X142570746Y-108574500D01*
X142570722Y-108574502D01*
X142540304Y-108577353D01*
X142540298Y-108577354D01*
X142412123Y-108622204D01*
X142412114Y-108622208D01*
X142302849Y-108702849D01*
X142222208Y-108812114D01*
X142222204Y-108812123D01*
X142177353Y-108940301D01*
X142177353Y-108940302D01*
X142174500Y-108970725D01*
X142174500Y-110329253D01*
X142174502Y-110329277D01*
X142177353Y-110359695D01*
X142177354Y-110359701D01*
X142222204Y-110487876D01*
X142222208Y-110487885D01*
X142302849Y-110597150D01*
X142412114Y-110677791D01*
X142412117Y-110677792D01*
X142412118Y-110677793D01*
X142412120Y-110677793D01*
X142412123Y-110677795D01*
X142503947Y-110709925D01*
X142540302Y-110722646D01*
X142570735Y-110725500D01*
X143604264Y-110725499D01*
X143634698Y-110722646D01*
X143762882Y-110677793D01*
X143768591Y-110673580D01*
X143872150Y-110597150D01*
X143952791Y-110487885D01*
X143952791Y-110487884D01*
X143952793Y-110487882D01*
X143997646Y-110359698D01*
X144000500Y-110329265D01*
X144000499Y-108970736D01*
X143997646Y-108940302D01*
X143996699Y-108937596D01*
X143952795Y-108812123D01*
X143952791Y-108812114D01*
X143872150Y-108702849D01*
X143762885Y-108622208D01*
X143762876Y-108622204D01*
X143634697Y-108577353D01*
X143604274Y-108574500D01*
X143604265Y-108574500D01*
X143414500Y-108574500D01*
X143379852Y-108560148D01*
X143365500Y-108525500D01*
X143365500Y-108152900D01*
X143379852Y-108118252D01*
X143414500Y-108103900D01*
X148948633Y-108103900D01*
X148983281Y-108118252D01*
X149411721Y-108546692D01*
X149425131Y-108571780D01*
X149459867Y-108746409D01*
X149459871Y-108746423D01*
X149527960Y-108910803D01*
X149539059Y-108937598D01*
X149583165Y-109003608D01*
X149650570Y-109104488D01*
X149654023Y-109109655D01*
X149800345Y-109255977D01*
X149972402Y-109370941D01*
X150163580Y-109450130D01*
X150366535Y-109490500D01*
X150366538Y-109490500D01*
X150573462Y-109490500D01*
X150573465Y-109490500D01*
X150776420Y-109450130D01*
X150967598Y-109370941D01*
X151139655Y-109255977D01*
X151285977Y-109109655D01*
X151400941Y-108937598D01*
X151480130Y-108746420D01*
X151520500Y-108543465D01*
X151520500Y-108336535D01*
X151480130Y-108133580D01*
X151400941Y-107942402D01*
X151285977Y-107770345D01*
X151139655Y-107624023D01*
X151139300Y-107623786D01*
X151054207Y-107566929D01*
X150967598Y-107509059D01*
X150951406Y-107502352D01*
X150776423Y-107429871D01*
X150776417Y-107429869D01*
X150694572Y-107413589D01*
X150573465Y-107389500D01*
X150366535Y-107389500D01*
X150265520Y-107409592D01*
X150163582Y-107429869D01*
X150163576Y-107429871D01*
X149972403Y-107509058D01*
X149800345Y-107624022D01*
X149654020Y-107770347D01*
X149619619Y-107821833D01*
X149588436Y-107842668D01*
X149551654Y-107835352D01*
X149544229Y-107829258D01*
X149429119Y-107714148D01*
X149414767Y-107679500D01*
X149429119Y-107644852D01*
X149463767Y-107630500D01*
X149469564Y-107630500D01*
X149496230Y-107623354D01*
X149545989Y-107610021D01*
X149614511Y-107570460D01*
X149670460Y-107514511D01*
X150220119Y-106964852D01*
X150254767Y-106950500D01*
X151339745Y-106950500D01*
X151339748Y-106950500D01*
X151398231Y-106938867D01*
X151464552Y-106894552D01*
X151508867Y-106828231D01*
X151520500Y-106769748D01*
X151520500Y-105030252D01*
X151508867Y-104971769D01*
X151482301Y-104932012D01*
X151464552Y-104905447D01*
X151414665Y-104872114D01*
X151398231Y-104861133D01*
X151339748Y-104849500D01*
X149600252Y-104849500D01*
X149541769Y-104861133D01*
X149475447Y-104905447D01*
X149431133Y-104971769D01*
X149419500Y-105030252D01*
X149419500Y-106769748D01*
X149431133Y-106828231D01*
X149435321Y-106834499D01*
X149439099Y-106840153D01*
X149446414Y-106876936D01*
X149433004Y-106902023D01*
X149319880Y-107015148D01*
X149285233Y-107029500D01*
X143437000Y-107029500D01*
X143402352Y-107015148D01*
X143388000Y-106980500D01*
X143388000Y-106834499D01*
X143402352Y-106799851D01*
X143437000Y-106785499D01*
X143604253Y-106785499D01*
X143604264Y-106785499D01*
X143634698Y-106782646D01*
X143762882Y-106737793D01*
X143872150Y-106657150D01*
X143923923Y-106587000D01*
X143952791Y-106547885D01*
X143952791Y-106547884D01*
X143952793Y-106547882D01*
X143997646Y-106419698D01*
X144000500Y-106389265D01*
X144000499Y-105030736D01*
X143997646Y-105000302D01*
X143966789Y-104912118D01*
X143952795Y-104872123D01*
X143952791Y-104872114D01*
X143872150Y-104762849D01*
X143762885Y-104682208D01*
X143762876Y-104682204D01*
X143634697Y-104637353D01*
X143604265Y-104634500D01*
X142570746Y-104634500D01*
X142570722Y-104634502D01*
X142540304Y-104637353D01*
X142540298Y-104637354D01*
X142412123Y-104682204D01*
X142412114Y-104682208D01*
X142302849Y-104762849D01*
X142222208Y-104872114D01*
X142222204Y-104872123D01*
X142177353Y-105000301D01*
X142177353Y-105000302D01*
X142174500Y-105030725D01*
X142174500Y-106389253D01*
X142174502Y-106389277D01*
X142177353Y-106419695D01*
X142177354Y-106419701D01*
X142222204Y-106547876D01*
X142222208Y-106547885D01*
X142302849Y-106657150D01*
X142412114Y-106737791D01*
X142412117Y-106737792D01*
X142412118Y-106737793D01*
X142412120Y-106737793D01*
X142412123Y-106737795D01*
X142461150Y-106754950D01*
X142540302Y-106782646D01*
X142570735Y-106785500D01*
X142738000Y-106785499D01*
X142772648Y-106799851D01*
X142787000Y-106834499D01*
X142787000Y-106980500D01*
X142772648Y-107015148D01*
X142738000Y-107029500D01*
X130889834Y-107029500D01*
X130813412Y-107049977D01*
X130813409Y-107049978D01*
X130744887Y-107089540D01*
X130744887Y-107089541D01*
X130210642Y-107623786D01*
X130210641Y-107623786D01*
X130171080Y-107692306D01*
X130171080Y-107692308D01*
X130150601Y-107768734D01*
X130150601Y-107855032D01*
X130136249Y-107889680D01*
X130101601Y-107904032D01*
X130098905Y-107903900D01*
X130097847Y-107903900D01*
X129804351Y-107903900D01*
X129769261Y-107910879D01*
X129745866Y-107915533D01*
X129728320Y-107927257D01*
X129691538Y-107934572D01*
X129673877Y-107927257D01*
X129656331Y-107915533D01*
X129597848Y-107903900D01*
X129304352Y-107903900D01*
X129251600Y-107914393D01*
X129245869Y-107915533D01*
X129179547Y-107959847D01*
X129135233Y-108026169D01*
X129123600Y-108084652D01*
X129123600Y-108084655D01*
X129123600Y-109034600D01*
X129109248Y-109069248D01*
X129074600Y-109083600D01*
X128124652Y-109083600D01*
X128068436Y-109094782D01*
X128066169Y-109095233D01*
X127999847Y-109139547D01*
X127964724Y-109192114D01*
X127955533Y-109205869D01*
X127943900Y-109264352D01*
X127943900Y-109557848D01*
X127955533Y-109616331D01*
X127966326Y-109632484D01*
X127967257Y-109633877D01*
X127974572Y-109670659D01*
X127967257Y-109688320D01*
X127955533Y-109705866D01*
X127955410Y-109706484D01*
X127943900Y-109764351D01*
X127943900Y-110057847D01*
X127955533Y-110116330D01*
X127967518Y-110134266D01*
X127999847Y-110182651D01*
X128015336Y-110193000D01*
X128066169Y-110226966D01*
X128124652Y-110238599D01*
X128124655Y-110238599D01*
X129129345Y-110238599D01*
X129129348Y-110238599D01*
X129187831Y-110226966D01*
X129254152Y-110182651D01*
X129298467Y-110116330D01*
X129310100Y-110057847D01*
X129310100Y-109764351D01*
X129298467Y-109705868D01*
X129286742Y-109688321D01*
X129279427Y-109651539D01*
X129286744Y-109633875D01*
X129298467Y-109616331D01*
X129310100Y-109557848D01*
X129310100Y-109319100D01*
X129324452Y-109284452D01*
X129359100Y-109270100D01*
X129597845Y-109270100D01*
X129597848Y-109270100D01*
X129656331Y-109258467D01*
X129673875Y-109246743D01*
X129710657Y-109239426D01*
X129728321Y-109246742D01*
X129745868Y-109258467D01*
X129804351Y-109270100D01*
X129804354Y-109270100D01*
X130097844Y-109270100D01*
X130097847Y-109270100D01*
X130156330Y-109258467D01*
X130169385Y-109249743D01*
X130173876Y-109246743D01*
X130210658Y-109239425D01*
X130228324Y-109246743D01*
X130245868Y-109258466D01*
X130245870Y-109258467D01*
X130304353Y-109270100D01*
X130304356Y-109270100D01*
X130597846Y-109270100D01*
X130597849Y-109270100D01*
X130656332Y-109258467D01*
X130673876Y-109246743D01*
X130710658Y-109239426D01*
X130728322Y-109246742D01*
X130745869Y-109258467D01*
X130804352Y-109270100D01*
X130804355Y-109270100D01*
X131097845Y-109270100D01*
X131097848Y-109270100D01*
X131156331Y-109258467D01*
X131173875Y-109246743D01*
X131210657Y-109239426D01*
X131228321Y-109246742D01*
X131245868Y-109258467D01*
X131304351Y-109270100D01*
X131304354Y-109270100D01*
X131597844Y-109270100D01*
X131597847Y-109270100D01*
X131656330Y-109258467D01*
X131669385Y-109249743D01*
X131673876Y-109246743D01*
X131710658Y-109239425D01*
X131728324Y-109246743D01*
X131745868Y-109258466D01*
X131745870Y-109258467D01*
X131804353Y-109270100D01*
X131804356Y-109270100D01*
X132097846Y-109270100D01*
X132097849Y-109270100D01*
X132156332Y-109258467D01*
X132173876Y-109246743D01*
X132210658Y-109239426D01*
X132228322Y-109246742D01*
X132245869Y-109258467D01*
X132304352Y-109270100D01*
X132543100Y-109270100D01*
X132577748Y-109284452D01*
X132592100Y-109319100D01*
X132592100Y-109557848D01*
X132603733Y-109616331D01*
X132614526Y-109632484D01*
X132615457Y-109633877D01*
X132622772Y-109670659D01*
X132615457Y-109688320D01*
X132603733Y-109705866D01*
X132603610Y-109706484D01*
X132592100Y-109764351D01*
X132592100Y-110057847D01*
X132603733Y-110116330D01*
X132614513Y-110132463D01*
X132615458Y-110133878D01*
X132622773Y-110170661D01*
X132615457Y-110188322D01*
X132603733Y-110205870D01*
X132592100Y-110264353D01*
X132592100Y-110557849D01*
X132603733Y-110616332D01*
X132603734Y-110616333D01*
X132615457Y-110633878D01*
X132622772Y-110670660D01*
X132615457Y-110688321D01*
X132603733Y-110705867D01*
X132603733Y-110705869D01*
X132592100Y-110764352D01*
X132592100Y-111057848D01*
X132603733Y-111116331D01*
X132603734Y-111116332D01*
X132615457Y-111133877D01*
X132622772Y-111170659D01*
X132615457Y-111188320D01*
X132603733Y-111205866D01*
X132603733Y-111205868D01*
X132592100Y-111264351D01*
X132592100Y-111557847D01*
X132603733Y-111616330D01*
X132603734Y-111616331D01*
X132615458Y-111633878D01*
X132622773Y-111670661D01*
X132615457Y-111688322D01*
X132603733Y-111705870D01*
X132592100Y-111764353D01*
X132592100Y-112057849D01*
X132603733Y-112116332D01*
X132603734Y-112116333D01*
X132615457Y-112133878D01*
X132622772Y-112170660D01*
X132615457Y-112188321D01*
X132603733Y-112205867D01*
X132599079Y-112229262D01*
X132592100Y-112264352D01*
X132592100Y-112264355D01*
X132592100Y-112503100D01*
X132577748Y-112537748D01*
X132543100Y-112552100D01*
X132304352Y-112552100D01*
X132275455Y-112557848D01*
X132245867Y-112563733D01*
X132228321Y-112575457D01*
X132191539Y-112582772D01*
X132173878Y-112575457D01*
X132163276Y-112568373D01*
X132156332Y-112563733D01*
X132097849Y-112552100D01*
X131804353Y-112552100D01*
X131745870Y-112563733D01*
X131728322Y-112575458D01*
X131691539Y-112582773D01*
X131673878Y-112575458D01*
X131663274Y-112568373D01*
X131656330Y-112563733D01*
X131597847Y-112552100D01*
X131304351Y-112552100D01*
X131275454Y-112557848D01*
X131245866Y-112563733D01*
X131228320Y-112575457D01*
X131191538Y-112582772D01*
X131173877Y-112575457D01*
X131163275Y-112568373D01*
X131156331Y-112563733D01*
X131097848Y-112552100D01*
X130804352Y-112552100D01*
X130775455Y-112557848D01*
X130745867Y-112563733D01*
X130728321Y-112575457D01*
X130691539Y-112582772D01*
X130673878Y-112575457D01*
X130663276Y-112568373D01*
X130656332Y-112563733D01*
X130597849Y-112552100D01*
X130304353Y-112552100D01*
X130245870Y-112563733D01*
X130228322Y-112575458D01*
X130191539Y-112582773D01*
X130173878Y-112575458D01*
X130163274Y-112568373D01*
X130156330Y-112563733D01*
X130097847Y-112552100D01*
X129804351Y-112552100D01*
X129775454Y-112557848D01*
X129745866Y-112563733D01*
X129728320Y-112575457D01*
X129691538Y-112582772D01*
X129673877Y-112575457D01*
X129663275Y-112568373D01*
X129656331Y-112563733D01*
X129597848Y-112552100D01*
X129597845Y-112552100D01*
X129359100Y-112552100D01*
X129324452Y-112537748D01*
X129310100Y-112503100D01*
X129310100Y-112264355D01*
X129310100Y-112264352D01*
X129298467Y-112205869D01*
X129286742Y-112188322D01*
X129279427Y-112151540D01*
X129286744Y-112133876D01*
X129298466Y-112116333D01*
X129298465Y-112116333D01*
X129298467Y-112116332D01*
X129310100Y-112057849D01*
X129310100Y-111764353D01*
X129298467Y-111705870D01*
X129286743Y-111688324D01*
X129279425Y-111651542D01*
X129286743Y-111633876D01*
X129298466Y-111616331D01*
X129298465Y-111616331D01*
X129298467Y-111616330D01*
X129310100Y-111557847D01*
X129310100Y-111264351D01*
X129298467Y-111205868D01*
X129286742Y-111188321D01*
X129279427Y-111151539D01*
X129286744Y-111133875D01*
X129298466Y-111116332D01*
X129298465Y-111116332D01*
X129298467Y-111116331D01*
X129310100Y-111057848D01*
X129310100Y-110764352D01*
X129298467Y-110705869D01*
X129268553Y-110661100D01*
X129254152Y-110639547D01*
X129198470Y-110602342D01*
X129187831Y-110595233D01*
X129129348Y-110583600D01*
X128124652Y-110583600D01*
X128080789Y-110592324D01*
X128066168Y-110595233D01*
X128055530Y-110602342D01*
X128028307Y-110610600D01*
X125235866Y-110610600D01*
X125201218Y-110596248D01*
X123734967Y-109129997D01*
X123721126Y-109102408D01*
X123720573Y-109098607D01*
X123669198Y-108993517D01*
X123586483Y-108910802D01*
X123533938Y-108885114D01*
X123481396Y-108859428D01*
X123481394Y-108859427D01*
X123413262Y-108849500D01*
X123413260Y-108849500D01*
X122321740Y-108849500D01*
X122321738Y-108849500D01*
X122253605Y-108859427D01*
X122253603Y-108859428D01*
X122148519Y-108910801D01*
X122148515Y-108910803D01*
X122065803Y-108993515D01*
X122065801Y-108993519D01*
X122014428Y-109098603D01*
X122014427Y-109098605D01*
X122004500Y-109166738D01*
X121496708Y-109166738D01*
X121459967Y-109129997D01*
X121446126Y-109102408D01*
X121445573Y-109098607D01*
X121394198Y-108993517D01*
X121311483Y-108910802D01*
X121258938Y-108885114D01*
X121206396Y-108859428D01*
X121206394Y-108859427D01*
X121138262Y-108849500D01*
X121138260Y-108849500D01*
X120046740Y-108849500D01*
X120046738Y-108849500D01*
X119978605Y-108859427D01*
X119978603Y-108859428D01*
X119873519Y-108910801D01*
X119873515Y-108910803D01*
X119790802Y-108993516D01*
X119788230Y-108998778D01*
X119776867Y-109022021D01*
X119748758Y-109046845D01*
X119732847Y-109049500D01*
X118949773Y-109049500D01*
X118873349Y-109069978D01*
X118873345Y-109069979D01*
X118833367Y-109093062D01*
X118826231Y-109097181D01*
X118804829Y-109109537D01*
X118804823Y-109109542D01*
X117821595Y-110092770D01*
X117786947Y-110107122D01*
X117752299Y-110092770D01*
X117749371Y-110089842D01*
X117749370Y-110089841D01*
X117745897Y-110087520D01*
X117742836Y-110086911D01*
X117742835Y-110086911D01*
X117451507Y-110086911D01*
X117451129Y-110086754D01*
X117450751Y-110086905D01*
X117447280Y-110085160D01*
X117416859Y-110072559D01*
X117416328Y-110072020D01*
X117412154Y-110067716D01*
X117410760Y-110065300D01*
X117379580Y-110034120D01*
X117379325Y-110033857D01*
X117372543Y-110016742D01*
X117365504Y-109999748D01*
X117365660Y-109999370D01*
X117365510Y-109998992D01*
X117372811Y-109982107D01*
X117379856Y-109965100D01*
X117410760Y-109934196D01*
X117410762Y-109934191D01*
X117412635Y-109931753D01*
X117445115Y-109913004D01*
X117451507Y-109912585D01*
X117742835Y-109912585D01*
X117742836Y-109912585D01*
X117745897Y-109911976D01*
X117749370Y-109909655D01*
X117751691Y-109906182D01*
X117752300Y-109903121D01*
X117752300Y-109596249D01*
X117751691Y-109593188D01*
X117749370Y-109589715D01*
X117745897Y-109587394D01*
X117742836Y-109586785D01*
X117742835Y-109586785D01*
X117451507Y-109586785D01*
X117416859Y-109572433D01*
X117412635Y-109567617D01*
X117410760Y-109565174D01*
X117354811Y-109509225D01*
X117345577Y-109503894D01*
X117322747Y-109474141D01*
X117327642Y-109436959D01*
X117357395Y-109414129D01*
X117370077Y-109412459D01*
X117742835Y-109412459D01*
X117742836Y-109412459D01*
X117745897Y-109411850D01*
X117749370Y-109409529D01*
X117751691Y-109406056D01*
X117752300Y-109402995D01*
X117752300Y-109149206D01*
X117755773Y-109140821D01*
X117755515Y-109131750D01*
X117762000Y-109125786D01*
X117766652Y-109114558D01*
X117781268Y-109104488D01*
X117786045Y-109102348D01*
X117787528Y-109102181D01*
X117802314Y-109095060D01*
X117802935Y-109094782D01*
X117804387Y-109094740D01*
X117822967Y-109090500D01*
X118289311Y-109090500D01*
X118393810Y-109062499D01*
X118393811Y-109062499D01*
X118396511Y-109061775D01*
X118403887Y-109059799D01*
X118506614Y-109000489D01*
X119667251Y-107839852D01*
X119701899Y-107825500D01*
X120029256Y-107825500D01*
X120029266Y-107825500D01*
X120059699Y-107822646D01*
X120187882Y-107777793D01*
X120297150Y-107697150D01*
X120310176Y-107679500D01*
X120377791Y-107587885D01*
X120377791Y-107587884D01*
X120377793Y-107587882D01*
X120386011Y-107564394D01*
X120401261Y-107520816D01*
X120426251Y-107492853D01*
X120447511Y-107488000D01*
X121052489Y-107488000D01*
X121087137Y-107502352D01*
X121098739Y-107520816D01*
X121122205Y-107587878D01*
X121122208Y-107587885D01*
X121202849Y-107697150D01*
X121312114Y-107777791D01*
X121312117Y-107777792D01*
X121312118Y-107777793D01*
X121312120Y-107777793D01*
X121312123Y-107777795D01*
X121437978Y-107821833D01*
X121440301Y-107822646D01*
X121470734Y-107825500D01*
X121470744Y-107825500D01*
X122529256Y-107825500D01*
X122529266Y-107825500D01*
X122559699Y-107822646D01*
X122687882Y-107777793D01*
X122797150Y-107697150D01*
X122810176Y-107679500D01*
X122877791Y-107587885D01*
X122877791Y-107587884D01*
X122877793Y-107587882D01*
X122886011Y-107564394D01*
X122901261Y-107520816D01*
X122908630Y-107512569D01*
X122912863Y-107502352D01*
X122920641Y-107499130D01*
X122926251Y-107492853D01*
X122947511Y-107488000D01*
X123000601Y-107488000D01*
X123035249Y-107502352D01*
X125156096Y-109623199D01*
X125168778Y-109645163D01*
X125173607Y-109663185D01*
X125173608Y-109663188D01*
X125239500Y-109777314D01*
X125332686Y-109870500D01*
X125366589Y-109890074D01*
X125446811Y-109936391D01*
X125446813Y-109936391D01*
X125446814Y-109936392D01*
X125473413Y-109943519D01*
X125574104Y-109970499D01*
X125574105Y-109970500D01*
X125574108Y-109970500D01*
X125705895Y-109970500D01*
X125705895Y-109970499D01*
X125833186Y-109936392D01*
X125836992Y-109934195D01*
X125873695Y-109913004D01*
X125947314Y-109870500D01*
X126040500Y-109777314D01*
X126099493Y-109675134D01*
X126129246Y-109652305D01*
X126166428Y-109657200D01*
X126189258Y-109686952D01*
X126193608Y-109703186D01*
X126193608Y-109703188D01*
X126243266Y-109789196D01*
X126259500Y-109817314D01*
X126352686Y-109910500D01*
X126385595Y-109929500D01*
X126466811Y-109976391D01*
X126466813Y-109976391D01*
X126466814Y-109976392D01*
X126551159Y-109998992D01*
X126594104Y-110010499D01*
X126594105Y-110010500D01*
X126594108Y-110010500D01*
X126725895Y-110010500D01*
X126725895Y-110010499D01*
X126853186Y-109976392D01*
X126967314Y-109910500D01*
X127060500Y-109817314D01*
X127126392Y-109703186D01*
X127131220Y-109685164D01*
X127143900Y-109663201D01*
X130742251Y-106064852D01*
X130776899Y-106050500D01*
X134705500Y-106050500D01*
X134740148Y-106064852D01*
X134754500Y-106099500D01*
X134754500Y-106129275D01*
X134757353Y-106159698D01*
X134757353Y-106159699D01*
X134802204Y-106287876D01*
X134802208Y-106287885D01*
X134882849Y-106397150D01*
X134992114Y-106477791D01*
X134992117Y-106477792D01*
X134992118Y-106477793D01*
X134992120Y-106477793D01*
X134992123Y-106477795D01*
X135120301Y-106522646D01*
X135150734Y-106525500D01*
X135150744Y-106525500D01*
X135934256Y-106525500D01*
X135934266Y-106525500D01*
X135964699Y-106522646D01*
X136092882Y-106477793D01*
X136116688Y-106460224D01*
X136202150Y-106397150D01*
X136282791Y-106287885D01*
X136282791Y-106287884D01*
X136282793Y-106287882D01*
X136327646Y-106159699D01*
X136330500Y-106129266D01*
X136330500Y-105070734D01*
X136330499Y-105070724D01*
X136829500Y-105070724D01*
X136829500Y-106129275D01*
X136832353Y-106159698D01*
X136832353Y-106159699D01*
X136877204Y-106287876D01*
X136877208Y-106287885D01*
X136957849Y-106397150D01*
X137067114Y-106477791D01*
X137067117Y-106477792D01*
X137067118Y-106477793D01*
X137067120Y-106477793D01*
X137067123Y-106477795D01*
X137195301Y-106522646D01*
X137225734Y-106525500D01*
X137225744Y-106525500D01*
X138009256Y-106525500D01*
X138009266Y-106525500D01*
X138039699Y-106522646D01*
X138167882Y-106477793D01*
X138191688Y-106460224D01*
X138277150Y-106397150D01*
X138357791Y-106287885D01*
X138357791Y-106287884D01*
X138357793Y-106287882D01*
X138402646Y-106159699D01*
X138405500Y-106129266D01*
X138405500Y-106059500D01*
X138419852Y-106024852D01*
X138454500Y-106010500D01*
X139150501Y-106010500D01*
X139185149Y-106024852D01*
X139199501Y-106059500D01*
X139199501Y-106389264D01*
X139199501Y-106389272D01*
X139199502Y-106389277D01*
X139202353Y-106419695D01*
X139202354Y-106419701D01*
X139247204Y-106547876D01*
X139247208Y-106547885D01*
X139327849Y-106657150D01*
X139437114Y-106737791D01*
X139437117Y-106737792D01*
X139437118Y-106737793D01*
X139437120Y-106737793D01*
X139437123Y-106737795D01*
X139486150Y-106754950D01*
X139565302Y-106782646D01*
X139595735Y-106785500D01*
X140629264Y-106785499D01*
X140659698Y-106782646D01*
X140787882Y-106737793D01*
X140897150Y-106657150D01*
X140948923Y-106587000D01*
X140977791Y-106547885D01*
X140977791Y-106547884D01*
X140977793Y-106547882D01*
X141022646Y-106419698D01*
X141025500Y-106389265D01*
X141025499Y-105030736D01*
X141022646Y-105000302D01*
X140991789Y-104912118D01*
X140977795Y-104872123D01*
X140977791Y-104872114D01*
X140897150Y-104762849D01*
X140787885Y-104682208D01*
X140787876Y-104682204D01*
X140659697Y-104637353D01*
X140629265Y-104634500D01*
X139595746Y-104634500D01*
X139595722Y-104634502D01*
X139565304Y-104637353D01*
X139565298Y-104637354D01*
X139437123Y-104682204D01*
X139437114Y-104682208D01*
X139327849Y-104762849D01*
X139247208Y-104872114D01*
X139247204Y-104872123D01*
X139202353Y-105000301D01*
X139202353Y-105000302D01*
X139199500Y-105030725D01*
X139199500Y-105360500D01*
X139185148Y-105395148D01*
X139150500Y-105409500D01*
X138454500Y-105409500D01*
X138419852Y-105395148D01*
X138405500Y-105360500D01*
X138405500Y-105070743D01*
X138405499Y-105070724D01*
X138402646Y-105040301D01*
X138402646Y-105040300D01*
X138357795Y-104912123D01*
X138357791Y-104912114D01*
X138277150Y-104802849D01*
X138167885Y-104722208D01*
X138167876Y-104722204D01*
X138039698Y-104677353D01*
X138009275Y-104674500D01*
X138009266Y-104674500D01*
X137225734Y-104674500D01*
X137225724Y-104674500D01*
X137195301Y-104677353D01*
X137195300Y-104677353D01*
X137067123Y-104722204D01*
X137067114Y-104722208D01*
X136957849Y-104802849D01*
X136877208Y-104912114D01*
X136877204Y-104912123D01*
X136832353Y-105040300D01*
X136832353Y-105040301D01*
X136829500Y-105070724D01*
X136330499Y-105070724D01*
X136327646Y-105040301D01*
X136324295Y-105030725D01*
X136282795Y-104912123D01*
X136282791Y-104912114D01*
X136202150Y-104802849D01*
X136092885Y-104722208D01*
X136092876Y-104722204D01*
X135964698Y-104677353D01*
X135934275Y-104674500D01*
X135934266Y-104674500D01*
X135150734Y-104674500D01*
X135150724Y-104674500D01*
X135120301Y-104677353D01*
X135120300Y-104677353D01*
X134992123Y-104722204D01*
X134992114Y-104722208D01*
X134882849Y-104802849D01*
X134802208Y-104912114D01*
X134802204Y-104912123D01*
X134757353Y-105040300D01*
X134757353Y-105040301D01*
X134754500Y-105070724D01*
X134754500Y-105100500D01*
X134740148Y-105135148D01*
X134705500Y-105149500D01*
X130510688Y-105149500D01*
X130420326Y-105173713D01*
X130396115Y-105180199D01*
X130396110Y-105180201D01*
X130293385Y-105239511D01*
X130293384Y-105239512D01*
X126506798Y-109026097D01*
X126484833Y-109038779D01*
X126466815Y-109043607D01*
X126466811Y-109043608D01*
X126352685Y-109109500D01*
X126352685Y-109109501D01*
X126259502Y-109202683D01*
X126259500Y-109202685D01*
X126259500Y-109202686D01*
X126244566Y-109228552D01*
X126200506Y-109304865D01*
X126170752Y-109327695D01*
X126133570Y-109322799D01*
X126110741Y-109293047D01*
X126106392Y-109276814D01*
X126095799Y-109258467D01*
X126063592Y-109202683D01*
X126040500Y-109162686D01*
X125947314Y-109069500D01*
X125935188Y-109062499D01*
X125833188Y-109003608D01*
X125833185Y-109003607D01*
X125815163Y-108998778D01*
X125793199Y-108986096D01*
X123484114Y-106677011D01*
X123381388Y-106617701D01*
X123381386Y-106617700D01*
X123357173Y-106611213D01*
X123327051Y-106603142D01*
X123266811Y-106587000D01*
X123266809Y-106587000D01*
X122947511Y-106587000D01*
X122912863Y-106572648D01*
X122901261Y-106554184D01*
X122877794Y-106487121D01*
X122877791Y-106487114D01*
X122797150Y-106377849D01*
X122687885Y-106297208D01*
X122687876Y-106297204D01*
X122559698Y-106252353D01*
X122529275Y-106249500D01*
X122529266Y-106249500D01*
X121470734Y-106249500D01*
X121470724Y-106249500D01*
X121440301Y-106252353D01*
X121440300Y-106252353D01*
X121312123Y-106297204D01*
X121312114Y-106297208D01*
X121202849Y-106377849D01*
X121122208Y-106487114D01*
X121122205Y-106487121D01*
X121098739Y-106554184D01*
X121073749Y-106582147D01*
X121052489Y-106587000D01*
X120447511Y-106587000D01*
X120412863Y-106572648D01*
X120401261Y-106554184D01*
X120377794Y-106487121D01*
X120377791Y-106487114D01*
X120297150Y-106377849D01*
X120187885Y-106297208D01*
X120187876Y-106297204D01*
X120059698Y-106252353D01*
X120029275Y-106249500D01*
X120029266Y-106249500D01*
X118970734Y-106249500D01*
X118970724Y-106249500D01*
X118940301Y-106252353D01*
X118940300Y-106252353D01*
X118812123Y-106297204D01*
X118812114Y-106297208D01*
X118702849Y-106377849D01*
X118622208Y-106487114D01*
X118622204Y-106487123D01*
X118577353Y-106615300D01*
X118577353Y-106615301D01*
X118574500Y-106645724D01*
X118574500Y-107429275D01*
X118577353Y-107459697D01*
X118577354Y-107459699D01*
X118616110Y-107570459D01*
X118617950Y-107575715D01*
X118615848Y-107613159D01*
X118606348Y-107626547D01*
X118057749Y-108175148D01*
X118023101Y-108189500D01*
X117987610Y-108189500D01*
X117952962Y-108175148D01*
X117938610Y-108140500D01*
X117939839Y-108129596D01*
X117944205Y-108110465D01*
X117947300Y-108096907D01*
X117947300Y-107487307D01*
X117942148Y-107441579D01*
X117902466Y-107359180D01*
X117830967Y-107302160D01*
X117830960Y-107302156D01*
X117741803Y-107281807D01*
X117741800Y-107281807D01*
X117404506Y-107281807D01*
X117369858Y-107267455D01*
X117355506Y-107232807D01*
X117369858Y-107198159D01*
X117380006Y-107190372D01*
X117404591Y-107176177D01*
X117474958Y-107135551D01*
X117580953Y-107029556D01*
X117655903Y-106899739D01*
X117686514Y-106785499D01*
X117694700Y-106754950D01*
X117694700Y-106605045D01*
X117655903Y-106460258D01*
X117655902Y-106460254D01*
X117580952Y-106330439D01*
X117474958Y-106224445D01*
X117345143Y-106149495D01*
X117345139Y-106149494D01*
X117200353Y-106110698D01*
X117200350Y-106110698D01*
X115958250Y-106110698D01*
X115958247Y-106110698D01*
X115813460Y-106149494D01*
X115813456Y-106149495D01*
X115683641Y-106224445D01*
X115683641Y-106224446D01*
X115577648Y-106330439D01*
X115577647Y-106330439D01*
X115502697Y-106460254D01*
X115502696Y-106460258D01*
X115463900Y-106605045D01*
X115463900Y-106754950D01*
X115502696Y-106899737D01*
X115502697Y-106899741D01*
X115577615Y-107029500D01*
X115577647Y-107029556D01*
X115683642Y-107135551D01*
X115731156Y-107162983D01*
X115813456Y-107210500D01*
X115813458Y-107210500D01*
X115813459Y-107210501D01*
X115849656Y-107220200D01*
X115958247Y-107249298D01*
X116430603Y-107249298D01*
X116465251Y-107263650D01*
X116479603Y-107298298D01*
X116468912Y-107328849D01*
X116413653Y-107398139D01*
X116413649Y-107398146D01*
X116393300Y-107487304D01*
X116393300Y-107487306D01*
X116393300Y-107487307D01*
X116393300Y-108096907D01*
X116398452Y-108142635D01*
X116410683Y-108168033D01*
X116414306Y-108200197D01*
X116393300Y-108292230D01*
X116393300Y-108901833D01*
X116398452Y-108947561D01*
X116398453Y-108947564D01*
X116438133Y-109029959D01*
X116509632Y-109086979D01*
X116509635Y-109086980D01*
X116509637Y-109086982D01*
X116550204Y-109096241D01*
X116580789Y-109117942D01*
X116588300Y-109144012D01*
X116588300Y-109400185D01*
X116573948Y-109434833D01*
X116539300Y-109449185D01*
X116359236Y-109449185D01*
X116282812Y-109469663D01*
X116282808Y-109469664D01*
X116246722Y-109490500D01*
X116238613Y-109495181D01*
X116214292Y-109509222D01*
X116214286Y-109509227D01*
X114886941Y-110836573D01*
X114886940Y-110836573D01*
X114847379Y-110905093D01*
X114847379Y-110905095D01*
X114826900Y-110981521D01*
X110000500Y-110981521D01*
X110000500Y-106605015D01*
X111466300Y-106605015D01*
X111466300Y-106754920D01*
X111505096Y-106899707D01*
X111505097Y-106899711D01*
X111571746Y-107015148D01*
X111580047Y-107029526D01*
X111686042Y-107135521D01*
X111733556Y-107162953D01*
X111815856Y-107210470D01*
X111815858Y-107210470D01*
X111815859Y-107210471D01*
X111852056Y-107220170D01*
X111960647Y-107249268D01*
X111960650Y-107249268D01*
X112897952Y-107249268D01*
X112970345Y-107229869D01*
X113042741Y-107210471D01*
X113172558Y-107135521D01*
X113278553Y-107029526D01*
X113353503Y-106899709D01*
X113380260Y-106799851D01*
X113392300Y-106754920D01*
X113392300Y-106605015D01*
X113353503Y-106460228D01*
X113353502Y-106460224D01*
X113278570Y-106330440D01*
X113278553Y-106330410D01*
X113172558Y-106224415D01*
X113042743Y-106149465D01*
X113042739Y-106149464D01*
X112897953Y-106110668D01*
X112897950Y-106110668D01*
X111960650Y-106110668D01*
X111960647Y-106110668D01*
X111815860Y-106149464D01*
X111815856Y-106149465D01*
X111686041Y-106224415D01*
X111686041Y-106224416D01*
X111580048Y-106330409D01*
X111580047Y-106330409D01*
X111505097Y-106460224D01*
X111505096Y-106460228D01*
X111466300Y-106605015D01*
X110000500Y-106605015D01*
X110000500Y-104119500D01*
X110014852Y-104084852D01*
X110049500Y-104070500D01*
X154260500Y-104070500D01*
X154295148Y-104084852D01*
G37*
%TD.AperFunction*%
%TD*%
M02*
