M48
; DRILL file {KiCad 9.0.1} date 2026-08-29T11:04:37+0300
; FORMAT={-:-/ absolute / metric / decimal}
; #@! TF.CreationDate,2026-08-29T11:04:37+03:00
; #@! TF.GenerationSoftware,Kicad,Pcbnew,9.0.1
; #@! TF.FileFunction,Plated,1,2,PTH
FMAT,2
METRIC
; #@! TA.AperFunction,Plated,PTH,ViaDrill
T1C0.300
; #@! TA.AperFunction,Plated,PTH,ComponentDrill
T2C1.000
%
G90
G05
T1
X113.5Y-116.98
X113.78Y-104.81
X115.95Y-107.81
X116.15Y-114.2
X117.98Y-104.96
X118.25Y-113.47
X119.09Y-110.24
X122.86Y-113.85
X122.93Y-116.64
X123.28Y-115.2
X123.3Y-112.86
X123.52Y-104.98
X124.036Y-110.704
X125.64Y-109.47
X125.69Y-106.71
X125.74Y-117.2
X126.66Y-109.51
X126.73Y-116.61
X127.38Y-110.4
X127.52Y-106.96
X127.945Y-105.201
X128.3Y-114.21
X130.24Y-114.601
X130.321Y-115.879
X134.44Y-117.2
X134.84Y-115.54
X134.977Y-108.998
X143.25Y-116.37
X144.46Y-113.72
X145.0Y-115.03
X145.701Y-105.623
X149.51Y-117.27
T2
X150.47Y-105.9
X150.47Y-108.44
X150.47Y-110.98
X150.47Y-113.52
X150.47Y-116.06
M30
